<?xml version="1.0" encoding="UTF-8" standalone="no"?>
<svg
   xmlns:dc="http://purl.org/dc/elements/1.1/"
   xmlns:cc="http://creativecommons.org/ns#"
   xmlns:rdf="http://www.w3.org/1999/02/22-rdf-syntax-ns#"
   xmlns:svg="http://www.w3.org/2000/svg"
   xmlns="http://www.w3.org/2000/svg"
   version="1.1"
   id="Layer_1"
   x="0px"
   y="0px"
   width="160"
   height="160"
   viewBox="19 19 117.77778 117.77778"
   xml:space="preserve"><metadata
     id="metadata8"><rdf:RDF><cc:Work
         rdf:about=""><dc:format>image/svg+xml</dc:format><dc:type
           rdf:resource="http://purl.org/dc/dcmitype/StillImage" /><dc:title></dc:title></cc:Work></rdf:RDF></metadata><defs
     id="defs6" /><g
     transform="translate(-164.19542,10.789546)"
     style="display:inline"
     id="layer2"><g
       transform="matrix(0.23023071,0,0,0.23023071,183.19542,8.1101109)"
       id="g47"
       style="clip-rule:evenodd;fill-rule:evenodd;stroke-linejoin:round;stroke-miterlimit:1.41420996"><g
         transform="matrix(1.07441,0,0,1.10624,57.6246,5.28005)"
         id="g32">
        <ellipse
   style="fill:#21252b"
   id="ellipse30"
   ry="222.375"
   rx="228.963"
   cy="226.642"
   cx="184.63699" />
    </g><path
         d="M 256,0 C 397.29,0 512,114.71 512,256 512,397.29 397.29,512 256,512 114.71,512 0,397.29 0,256 0,114.71 114.71,0 256,0 Z m 0,10 C 391.771,10 502,120.229 502,256 502,391.771 391.771,502 256,502 120.229,502 10,391.771 10,256 10,120.229 120.229,10 256,10 Z"
         style="fill:#e4e37f;fill-opacity:1"
         id="path34" /></g></g><path
     style="fill:#e4e37f;fill-opacity:1;stroke-width:0.24537"
     d="m 86.985045,114.23949 c 1.78142,-0.27569 2.75262,-0.55355 3.96372,-1.13402 2.2456,-1.07628 3.92811,-3.25116 4.05594,-5.24286 0.0527,-0.8216 0.0108,-1.04506 -0.45047,-2.40043 -0.49801,-1.46333 -1.43149,-3.60891 -2.46089,-5.65622 -0.28385,-0.56452 -0.49178,-1.05073 -0.46204,-1.08047 0.0864,-0.0863 0.97429,0.97285 1.82183,2.17318 1.13869,1.61271 1.96485,3.23243 2.56895,5.03655 l 0.53253,1.59033 0.91975,0.38289 c 1.810194,0.7536 3.059645,1.00042 5.361275,1.05909 1.94159,0.0495 2.1754,0.0309 3.31652,-0.26306 2.19535,-0.56563 3.84598,-1.52053 5.35354,-3.09707 1.07141,-1.1204 1.53263,-1.81995 2.17354,-3.29668 0.71675,-1.65144 1.05453,-2.20551 1.86513,-3.05938 0.8852,-0.93243 1.76424,-1.55012 3.87908,-2.72574 3.66199,-2.03566 4.86864,-3.12309 5.83818,-5.26138 0.67614,-1.49119 0.79222,-2.15477 0.78724,-4.50078 -0.005,-2.41272 -0.18682,-3.50692 -0.97574,-5.875 -0.69067,-2.07327 -1.96711,-4.51078 -2.85918,-5.46001 -0.36025,-0.38331 -0.91834,-0.44905 -1.33496,-0.15723 -0.40376,0.2828 -0.96035,1.23432 -1.62023,2.76982 -1.42155,3.30787 -4.24782,9.38863 -4.13976,8.90673 0.0303,-0.13516 0.38643,-1.68335 0.79141,-3.44044 0.90208,-3.91373 1.04594,-4.95512 0.95903,-6.94231 -0.13873,-3.17141 -0.99411,-5.68703 -3.17987,-9.35182 -1.47853,-2.47899 -2.66445,-3.70211 -4.34166,-4.47784 -1.40582,-0.6502 -2.64264,-0.939337 -4.10276,-0.959084 l -1.2892,-0.01743 -0.16023,0.547114 c -0.0881,0.3009 -0.24993,1.15794 -0.35956,1.90453 -0.28579,1.94583 -0.18867,3.3858 0.37745,5.59653 0.56155,2.19284 0.66215,3.26477 0.3933,4.18964 -0.18169,0.62505 -0.95265,1.73098 -1.10429,1.58411 -0.0356,-0.0345 0.0223,-0.53213 0.12895,-1.10586 0.27429,-1.47742 0.23023,-1.98402 -0.3953,-4.54502 -0.30536,-1.25023 -0.58832,-2.71549 -0.62878,-3.25613 -0.11979,-1.59991 0.2024,-3.82841 1.0746,-7.432382 0.41921,-1.732274 0.40456,-2.222954 -0.0982,-3.287991 -0.56877,-1.20484 -2.21165,-2.652174 -4.069351,-3.584999 -2.376514,-1.193342 -5.819104,-1.776963 -7.725684,-1.309726 -2.64576,0.648374 -4.34681,2.398587 -7.38324,7.596646 -2.558528,4.379962 -4.087498,10.074562 -3.934368,14.653582 0.0575,1.718 0.0499,1.80557 -0.11218,1.29017 -0.72478,-2.30522 -0.84148,-4.16276 -0.42035,-6.68937 0.57759,-3.46518 1.35953,-5.83226 2.9857,-9.038355 1.488608,-2.934928 1.737778,-3.689052 1.675288,-5.070361 -0.10963,-2.422611 -1.465968,-3.727212 -5.068198,-4.874905 -5.48234,-1.746687 -11.97427,-0.26183 -13.62883,3.117233 -0.61269,1.251264 -0.69803,1.919447 -0.8251,6.459413 -0.18484,6.603925 -0.28584,7.987165 -0.67278,9.215465 -0.51329,1.62931 -1.11075,2.6747 -1.76618,3.09036 -0.30362,0.19254 -0.67906,0.35008 -0.83436,0.35008 -0.2743,0 -0.27047,-0.0155 0.13474,-0.54634 1.01787,-1.33349 1.54315,-4.30153 1.73471,-9.801618 l 0.0758,-2.176927 -0.55198,-0.590121 c -1.88486,-2.015067 -6.15414,-3.123207 -9.11512,-2.365917 -1.73514,0.44378 -3.25025,1.698544 -4.17434,3.457088 -1.32026,2.512491 -1.54772,4.928555 -0.98734,10.487925 0.2633,2.61201 0.27673,2.98054 0.11765,3.22541 -0.21261,0.32726 -0.23423,0.32878 -1.34127,0.0943 -0.47305,-0.1002 -1.28532,-0.18314 -1.80509,-0.1843 -0.51974,-0.001 -0.97478,-0.0503 -1.01122,-0.10926 -0.0364,-0.0589 0.16769,-0.19223 0.45354,-0.29624 0.45276,-0.16472 0.82114,-0.2552 2.14832,-0.5277 0.269,-0.0552 0.27484,-0.0878 0.20287,-1.12953 -0.0637,-0.92287 -0.11532,-1.11048 -0.36935,-1.34341 -0.59142,-0.54236 -2.25795,-0.71316 -3.10234,-0.31797 -0.71837,0.33622 -1.7746,1.47694 -2.20755,2.38419 -0.62535,1.31033 -0.79854,2.18557 -0.72635,3.67083 0.0757,1.55803 0.36541,2.45946 1.71796,5.3465 2.51247,5.36284 2.97311,8.01986 1.79805,10.37132 -0.20152,0.40332 -0.5562,0.89992 -0.7881,1.10355 -0.39593,0.34763 -1.21059,0.62263 -1.37057,0.46267 -0.0396,-0.0396 0.10085,-0.26898 0.31216,-0.50966 1.81908,-2.07181 1.50363,-5.14916 -1.0838,-10.5732 l -0.82317,-1.72565 -0.97321,-0.14987 c -2.16188,-0.3329 -4.05977,-1.27963 -5.27514,-2.6314 -0.67902,-0.75522 -1.01493,-1.3706 -1.29298,-2.36853 l -0.2054,-0.73724 -0.81088,1.25336 c -1.55633,2.40565 -2.5295,4.3639 -2.9798,5.99614 -0.11186,0.40548 -0.23141,1.34545 -0.26566,2.08883 -0.0567,1.23059 -0.0331,1.43833 0.26335,2.32021 0.53167,1.58139 1.63285,3.08003 3.15515,4.29396 0.31105,0.24806 0.61517,0.44847 0.6758,0.44533 0.0606,-0.003 0.27609,-0.21678 0.47884,-0.47478 0.20272,-0.25799 0.70254,-0.73158 1.11072,-1.05241 0.74126,-0.58271 2.14539,-1.46473 2.14539,-1.3477 0,0.034 -0.29631,0.41121 -0.65847,0.83812 -1.61216,1.9004 -2.15789,3.00886 -2.25969,4.58977 -0.20118,3.12439 2.05804,6.39523 5.04368,7.30209 0.70272,0.21344 1.06682,0.24728 2.15538,0.20031 2.25454,-0.0973 3.46898,-0.74801 6.00613,-3.21836 0.96497,-0.93958 1.75452,-1.67427 1.75452,-1.63267 0,0.0416 -0.11851,0.39237 -0.26335,0.77949 -0.34573,0.92404 -0.92147,1.88626 -1.71215,2.86145 l -0.64169,0.79144 0.38516,1.17452 c 0.91658,2.79497 2.46359,4.39842 5.07862,5.26388 1.64325,0.54383 2.97338,0.69016 5.38588,0.59252 2.59433,-0.10501 4.13287,-0.3202 4.07288,-0.56967 -0.26355,-1.0959 -0.0579,-4.34121 0.3697,-5.83243 l 0.14092,-0.49149 0.0955,0.36862 c 0.0525,0.20274 0.18226,1.39327 0.28831,2.64563 0.10602,1.25234 0.27758,2.60252 0.38123,3.00037 0.48281,1.85366 1.90123,3.53427 3.81521,4.52046 1.69095,0.87126 3.18454,1.23162 5.17118,1.24766 0.88969,0.007 1.64803,-0.0173 1.68523,-0.0543 0.0372,-0.0371 -0.072,-0.41295 -0.24257,-0.83532 -0.53226,-1.31776 -0.66957,-2.33217 -0.72598,-5.3638 -0.0596,-3.2015 -0.10669,-3.24415 0.74654,0.6758 0.55176,2.53484 1.04783,4.05407 1.59427,4.8825 1.0243,1.55284 3.44564,2.85146 6.37571,3.4194 1.06014,0.20549 4.619598,0.13918 6.274258,-0.11689 z m -19.765878,-10.739 c -1.11526,-1.76666 -1.68793,-5.08864 -1.31587,-7.63313 0.0819,-0.56008 0.1234,-1.04383 0.0922,-1.075 -0.16167,-0.1617 -2.16736,-0.55712 -3.44964,-0.68009 -3.1836,-0.30535 -5.07509,0.24234 -7.7139,2.23359 l -0.40489,0.30553 0.30117,-0.4284 c 0.16562,-0.23562 0.70829,-0.88833 1.2059,-1.45047 1.39593,-1.57703 1.78983,-2.65376 1.50343,-4.10964 -0.18709,-0.95088 -0.60982,-1.79444 -1.19005,-2.37466 -0.52926,-0.52927 -1.86785,-1.18978 -2.99106,-1.47591 -1.02131,-0.26017 -2.79951,-0.16985 -3.91442,0.19885 -0.42962,0.14207 -0.80386,0.23561 -0.83161,0.20787 -0.0752,-0.0752 0.88594,-0.71921 1.59672,-1.06995 0.46979,-0.2318 0.64754,-0.39764 0.72439,-0.6758 0.15161,-0.54874 0.0157,-1.47 -0.32757,-2.21972 -0.29693,-0.64859 -1.44165,-1.92823 -2.22384,-2.48599 l -0.36862,-0.26285 0.37971,-0.004 c 0.51942,-0.005 1.6996,0.60879 2.46943,1.28497 0.8597,0.75514 1.28724,1.64448 1.36374,2.83686 l 0.0586,0.91206 h 0.45276 c 2.30611,0 4.66535,1.45659 5.66779,3.49929 0.39323,0.80129 0.42019,0.93425 0.41102,2.02741 -0.007,0.77815 -0.079,1.35114 -0.21635,1.71125 -0.11358,0.29776 -0.18977,0.55813 -0.16925,0.57863 0.0204,0.0205 0.36665,-0.0555 0.76926,-0.169 1.16497,-0.32825 4.80459,-0.28785 6.24026,0.0693 0.59666,0.14842 1.10698,0.26986 1.13407,0.26986 0.0271,0 0.16769,-0.23499 0.31246,-0.5222 0.80089,-1.58895 2.18976,-2.98691 3.81718,-3.84209 l 0.85065,-0.447 -0.86508,-0.60752 c -2.10339,-1.47714 -3.75358,-4.43273 -4.38369,-7.85145 -0.15988,-0.86739 -0.21526,-1.81444 -0.21556,-3.68618 0,-3.08654 0.26395,-5.23957 1.2175,-9.91369 1.04457,-5.120153 1.42853,-6.318704 2.27579,-7.104204 0.39608,-0.367207 0.39728,-0.36744 0.31314,-0.06144 -0.30131,1.095927 -1.59321,6.775004 -1.90069,8.355354 -0.71675,3.68379 -0.81041,4.60797 -0.80928,7.98674 0,3.5176 0.14301,4.50924 0.98041,6.85364 0.64063,1.79355 2.0666,3.7338 3.34712,4.5542 0.72318,0.46334 2.44131,1.04326 3.89969,1.31627 1.20089,0.22481 3.89351,0.1919 4.7318,-0.0579 0.26564,-0.0791 0.73748,-0.44028 1.22872,-0.94048 1.33986,-1.36424 2.292438,-1.90748 4.975148,-2.83723 0.47307,-0.16395 1.49597,-0.40763 2.27316,-0.5415 2.3691,-0.40812 3.47878,-1.08572 4.22682,-2.58097 0.98055,-1.96003 1.02312,-3.57641 0.20231,-7.6823 -0.2715,-1.35803 -0.54389,-3.04804 -0.60533,-3.75557 -0.12215,-1.40686 0.002,-3.16301 0.26924,-3.81561 0.15719,-0.38348 0.16987,-0.33313 0.25136,0.99868 0.16236,2.65325 0.68194,5.64332 1.43238,8.24298 0.86969,3.01275 0.48411,5.71267 -1.0999,7.7021 l -0.49067,0.61627 1.21196,0.14688 c 3.1772,0.38507 5.089204,1.25933 6.322955,2.89118 l 0.35539,0.47009 0.93477,-0.0831 c 2.11401,-0.18793 3.44784,-0.77279 4.75358,-2.0843 1.53074,-1.5375 2.32118,-3.25133 2.92477,-6.34155 0.17821,-0.91233 0.39647,-2.37759 0.48502,-3.25613 l 0.16099,-1.59735 0.16957,0.55293 c 0.11204,0.36533 0.16519,1.11573 0.15667,2.21171 -0.0407,5.22423 -2.06879,9.44513 -5.26275,10.95274 -0.69239,0.32682 -2.0761,0.72071 -3.17239,0.90308 -0.40779,0.0678 -0.4652,0.11608 -0.41321,0.34728 0.0332,0.14767 0.15385,0.68319 0.26814,1.19003 0.15704,0.69654 0.23426,1.94163 0.31619,5.09923 0.10624,4.09272 0.23761,5.38711 0.61926,6.1002 0.0732,0.13683 0.1099,0.27204 0.0815,0.30046 -0.0972,0.0972 -0.43896,-0.37973 -0.93265,-1.30144 -0.60805,-1.13521 -0.70522,-1.77873 -0.87838,-5.81684 -0.16977,-3.95882 -0.47287,-5.34907 -1.469791,-6.74125 -0.90534,-1.2643 -2.297924,-1.95387 -4.786244,-2.37004 -1.76277,-0.29482 -5.37776,-0.20703 -6.85143,0.16639 -2.51532,0.63735 -3.90855,1.32732 -5.246328,2.59808 -1.86872,1.7751 -2.70715,4.15392 -2.24276,6.36326 0.33574,1.59727 1.95687,4.41487 3.938208,6.84479 1.24783,1.53033 1.30032,1.61096 0.91442,1.40484 -0.1602,-0.0856 -1.12284,-0.98961 -2.13913,-2.00895 -1.477428,-1.48181 -1.999108,-2.09967 -2.602298,-3.08208 -0.79883,-1.30101 -1.31281,-2.63177 -1.44821,-3.74949 -0.10033,-0.82837 0.0967,-2.33389 0.42918,-3.27998 0.13589,-0.38665 0.24709,-0.70492 0.24709,-0.70725 0,-0.002 -0.84322,-0.01 -1.87382,-0.016 -1.25993,-0.008 -2.16829,-0.0784 -2.77269,-0.21503 -1.30914,-0.29604 -1.93599,-0.26168 -2.96458,0.16246 -2.54216,1.0483 -3.77623,2.36641 -4.54357,4.85298 -0.16114,0.52214 -0.29204,1.36187 -0.33525,2.15027 -0.0825,1.50546 0.13417,4.99197 0.38189,6.14587 0.0942,0.43863 0.15164,0.81708 0.12772,0.841 -0.024,0.0239 -0.18224,-0.17626 -0.35179,-0.44486 z m 43.769783,-9.29683 c -0.44903,-0.0937 -1.20217,-0.3325 -1.67367,-0.53061 -0.81762,-0.34353 -2.97777,-1.47216 -2.97777,-1.55583 0,-0.0219 0.6386,0.14429 1.41913,0.36922 2.62148,0.75549 4.59036,0.84502 6.54655,0.29775 2.3702,-0.66312 4.0172,-1.93356 6.69029,-5.16064 0.81169,-0.97991 1.52868,-1.83695 1.59334,-1.90453 0.24561,-0.25678 -1.55724,3.23255 -2.07363,4.01336 -1.38585,2.09553 -3.33495,3.61336 -5.47563,4.26407 -1.09369,0.33245 -2.98495,0.42924 -4.04861,0.20721 z M 58.229907,83.69567 c -2.72919,-2.04346 -4.56156,-4.11244 -5.59477,-6.31726 -0.71503,-1.52586 -0.89079,-2.42917 -0.81566,-4.19241 0.0738,-1.73359 0.31754,-2.63951 1.35889,-5.05147 0.59421,-1.37638 0.8359,-2.1574 1.26954,-4.10256 0.0653,-0.2928 0.0791,-0.28417 0.29541,0.18431 0.40662,0.88066 0.31888,2.09168 -0.27148,3.74762 -1.33379,3.7412 -1.59113,5.44972 -1.11038,7.37237 0.66017,2.64021 2.56282,5.23609 5.89046,8.03666 0.55459,0.46672 1.0083,0.91182 1.0083,0.98912 0,0.17735 -0.25297,0.43543 -0.42682,0.43543 -0.0725,0 -0.79414,-0.49582 -1.60349,-1.10181 z m 68.383613,-6.28701 c 0.81755,-2.88477 0.18533,-5.45503 -1.73683,-7.06095 l -0.50448,-0.42149 -0.47035,0.42493 c -0.75628,0.68325 -1.7029,0.73291 -3.43399,0.18016 l -0.92153,-0.29426 1.59193,-0.0346 c 1.86342,-0.0405 1.9508,-0.0855 2.16545,-1.11574 0.17625,-0.84594 0.0652,-2.91473 -0.2054,-3.82589 -0.21549,-0.72558 -0.96087,-1.61641 -1.64195,-1.96229 -0.69665,-0.35383 -2.43405,-0.86394 -2.94243,-0.86394 -0.42672,0 -0.49925,0.0522 -0.84525,0.60885 -0.45995,0.7399 -1.17891,1.21095 -2.56822,1.68266 -0.56209,0.19085 -1.02196,0.3863 -1.02196,0.43435 0,0.048 0.32263,0.60172 0.71697,1.23037 0.39433,0.62866 0.92897,1.53005 1.1881,2.00311 0.25914,0.47306 0.48115,0.87488 0.49337,0.89293 0.0123,0.0181 0.34521,-0.16165 0.73991,-0.39934 0.39473,-0.23768 0.78553,-0.43215 0.86844,-0.43215 0.0829,0 0.24685,-0.0369 0.36426,-0.0819 0.12113,-0.0465 -0.0601,0.27508 -0.41927,0.74361 -0.34801,0.45406 -0.66657,0.96037 -0.70794,1.12515 -0.10963,0.4368 -0.008,1.08139 0.36472,2.32489 0.18182,0.60574 0.38962,1.62865 0.46181,2.27315 0.21389,1.9102 0.17966,1.85559 0.66139,1.0556 0.90856,-1.50884 1.53997,-2.07629 2.47702,-2.22613 1.341,-0.21444 2.81989,1.35355 4.15885,4.40943 l 0.47502,1.08412 0.21793,-0.42476 c 0.11984,-0.23363 0.33334,-0.83207 0.47443,-1.32988 z m -86.684023,0.41579 c -0.48463,-1.25534 -0.60541,-3.65273 -0.2584,-5.12994 0.50016,-2.12927 1.91536,-4.09702 3.47066,-4.82569 0.62903,-0.29472 0.8626,-0.33497 1.94368,-0.33497 0.6758,0 1.39461,0.0429 1.59734,0.0953 l 0.36862,0.0953 -0.0393,-2.12274 c -0.0748,-4.040874 0.52732,-6.494188 2.08606,-8.500062 l 0.57709,-0.742633 -0.5594,-0.212347 c -0.6731,-0.255504 -1.46537,-0.787001 -1.56669,-1.050994 -0.0404,-0.10535 -0.0584,-0.20311 -0.0399,-0.217263 0.0184,-0.01413 0.7871,0.08552 1.70805,0.221463 l 1.67441,0.247173 0.82562,-0.453806 c 0.45408,-0.249594 1.16585,-0.534043 1.58171,-0.632108 0.96317,-0.227142 3.80122,-0.23175 4.84483,-0.0079 0.74029,0.158801 0.77844,0.155079 0.95226,-0.0931 0.50816,-0.725489 -0.0906,-1.493948 -1.42312,-1.826577 -0.43551,-0.108706 -1.2618,-0.31496 -1.83623,-0.458339 -0.57444,-0.14338 -1.6934,-0.568951 -2.48661,-0.945705 -1.16774,-0.55466 -1.69382,-0.728598 -2.76464,-0.914088 -3.11713,-0.539977 -4.93714,-0.168322 -6.50825,1.32898 -0.96767,0.922235 -1.61996,2.060344 -2.37194,4.138605 -1.26202,3.487758 -1.75911,4.070028 -4.71902,5.527445 -2.13091,1.049226 -2.88246,1.654966 -3.45739,2.786646 -0.49187,0.96821 -0.66632,1.75204 -0.6675,2.9994 -0.002,0.92423 0.28988,3.22023 0.42493,3.35528 0.0218,0.0217 0.18658,-0.282 0.36636,-0.67491 0.17976,-0.39293 0.72456,-1.3969 1.21061,-2.23107 0.64515,-1.10718 0.89462,-1.44509 0.92404,-1.25157 0.0526,0.34571 -0.40908,1.85684 -0.80717,2.64227 -0.47241,0.93205 -0.88608,2.23398 -1.02555,3.22755 -0.30949,2.20488 0.69445,4.13956 2.72393,5.24923 0.771,0.42157 2.32265,0.90996 2.92143,0.9195 0.34379,0.006 0.39865,-0.0292 0.32946,-0.20844 z M 38.793777,62.6322 c 2.40791,-0.80639 2.6444,-1.050601 2.78809,-2.879191 0.0867,-1.103631 0.14671,-1.327741 0.54705,-2.043621 0.24731,-0.44222 0.46078,-0.80386 0.47435,-0.803637 0.0135,0 0.0247,1.046677 0.0247,2.325464 0,2.168388 -0.0174,2.348458 -0.25756,2.672085 -0.66363,0.89406 -1.85655,1.27195 -3.98155,1.26127 l -1.16728,-0.006 1.57219,-0.52651 z m 76.085353,1.75963 c 1.58823,-0.92542 1.98138,-1.56328 1.8755,-3.042947 -0.10945,-1.529904 -1.07462,-2.889208 -2.52191,-3.551802 -0.6927,-0.317133 -2.88617,-0.75837 -3.80412,-0.76524 -0.49803,-0.0037 -0.51967,0.0123 -0.60064,0.443904 -0.0462,0.246273 -0.0527,0.972217 -0.0145,1.613207 l 0.0695,1.165454 -0.40209,-0.599514 c -0.83333,-1.24239 -1.16267,-2.806868 -0.75628,-3.592688 0.18047,-0.34902 1.51248,-1.3192 1.63836,-1.193317 0.0388,0.03875 0.011,0.263943 -0.0615,0.500423 -0.0726,0.236471 -0.1233,0.430154 -0.11272,0.430414 0.0105,0 0.70872,0.13554 1.55145,0.300607 0.84275,0.16508 1.55256,0.279843 1.57736,0.25502 0.0933,-0.0933 -0.26002,-1.496331 -0.49165,-1.952323 -0.50786,-0.999831 -1.74119,-1.886823 -3.7535,-2.699444 -0.97145,-0.392295 -3.3534,-1.00328 -7.03285,-1.803983 -1.58667,-0.345283 -2.909091,-0.652023 -2.938681,-0.681636 -0.0296,-0.02961 1.116511,-0.05384 2.546941,-0.05384 2.1162,0 2.6008,-0.03127 2.6008,-0.167797 0,-0.09229 -0.19509,-0.557817 -0.43356,-1.034489 -0.7702,-1.539511 -2.13627,-2.66703 -3.875041,-3.19837 -0.97913,-0.299195 -2.755804,-0.452993 -3.863164,-0.33441 -0.69742,0.07469 -0.80312,0.117073 -0.7275,0.291677 0.0487,0.112355 0.11449,0.550432 0.14629,0.97351 0.0535,0.712145 0.0818,0.774256 0.38131,0.837182 0.38667,0.08123 3.387954,1.244859 3.825374,1.483158 l 0.307201,0.167343 -0.307201,-0.0632 c -1.514824,-0.311606 -4.549734,-0.674707 -5.634444,-0.674104 -2.9892,0.0017 -5.99396,0.810652 -7.44844,2.005408 l -0.36555,0.300277 -0.49979,-0.876868 c -0.27489,-0.482287 -0.73675,-1.319163 -1.02641,-1.859729 l -0.52664,-0.982848 1.05943,1.086233 c 0.59944,0.614609 1.1238,1.055021 1.20767,1.014351 0.0815,-0.03951 0.40979,-0.260784 0.72951,-0.4917 1.11908,-0.80827 3.52703,-1.412681 5.65836,-1.420288 1.34228,-0.0048 1.4057,-0.04607 1.2604,-0.820604 -0.25217,-1.344218 -3.67506,-3.364589 -6.63992,-3.919249 -1.68898,-0.31598 -4.31675,-0.20327 -5.713598,0.245069 -1.07246,0.344228 -2.42355,1.020287 -2.69667,1.349378 -0.0846,0.101959 -0.16219,0.366615 -0.17235,0.588118 -0.0179,0.391681 -0.002,0.405441 0.59589,0.501847 1.33663,0.215656 1.90451,0.353603 1.90451,0.462616 0,0.06746 -1.40869,0.114064 -3.44767,0.114064 -2.50111,0 -3.42449,-0.03756 -3.36317,-0.136795 0.17573,-0.284315 1.14683,-0.593695 2.11764,-0.67467 0.95022,-0.07924 1.00703,-0.100214 1.00703,-0.371749 0,-0.35326 -0.61262,-0.784533 -1.65895,-1.16787 -0.99638,-0.365042 -3.29503,-0.391719 -4.48469,-0.05205 -1.13002,0.322652 -2.06584,0.779345 -2.28626,1.115724 -0.20383,0.311076 -0.13723,0.53726 0.33861,1.150394 0.30029,0.386915 0.28696,0.671391 -0.049,1.045564 -0.22731,0.253153 -0.55721,0.364662 -1.85571,0.62724 -0.86861,0.175646 -1.64209,0.298422 -1.71884,0.27284 -0.0768,-0.02559 0.36133,-0.305241 0.97358,-0.621455 1.63547,-0.84469 1.61972,-0.829686 1.32549,-1.262063 -0.13292,-0.195345 -0.30691,-0.50722 -0.38665,-0.693066 -0.13932,-0.324775 -0.17998,-0.337897 -1.04724,-0.337897 -1.48371,0 -2.80056,0.599629 -3.86432,1.759635 -0.55235,0.602323 -0.62751,0.826061 -0.35387,1.053179 0.0926,0.07683 0.32379,0.484476 0.51378,0.905868 0.48441,1.074365 0.55532,2.439162 0.18938,3.644029 -0.14531,0.478367 -0.28434,0.869767 -0.30895,0.869767 -0.0246,0 -0.0512,-0.460528 -0.0592,-1.023396 -0.0264,-1.879992 -0.57998,-3.27053 -1.52034,-3.819108 -0.28544,-0.166506 -0.98894,-0.424194 -1.56337,-0.572638 -1.91021,-0.493617 -4.49831,-0.10997 -5.4422,0.806734 -0.73032,0.709285 -0.76513,1.78995 -0.0827,2.567183 0.37319,0.425053 0.4562,0.456164 2.51453,0.942422 1.45027,0.342594 2.73296,0.959391 3.29967,1.586656 0.39068,0.432451 0.44795,0.575119 0.44795,1.115945 0,0.34107 -0.087,0.788387 -0.19335,0.994052 -0.10637,0.205665 -0.17549,0.384295 -0.1536,0.396965 0.0218,0.01267 0.39487,0.187234 0.82888,0.387924 0.43399,0.200686 1.08613,0.57223 1.44921,0.825653 0.36305,0.253427 0.67712,0.460774 0.69795,0.460774 0.0209,0 0.0756,-0.537004 0.12173,-1.193337 0.19711,-2.80396 0.85585,-4.504741 2.2566,-5.826142 1.34186,-1.265859 3.20996,-2.075149 5.78331,-2.505451 1.53908,-0.257344 4.77836,-0.200195 6.46482,0.114063 2.50054,0.465959 4.72937,1.499246 6.065428,2.811958 0.75712,0.743873 1.45716,2.044383 1.57381,2.923673 0.044,0.33188 0.0897,0.603417 0.10141,0.603417 0.0118,0 0.57485,-0.539106 1.25134,-1.198011 2.08135,-2.027241 3.40549,-2.623482 6.00656,-2.704677 1.29509,-0.04042 1.80782,-0.0025 2.7096,0.201069 5.257415,1.186066 9.011975,4.196895 9.223655,7.396515 0.0471,0.711667 -0.004,1.159537 -0.23264,2.032317 l -0.29302,1.119471 1.17952,0.0773 c 3.15029,0.206454 6.23553,1.701024 7.85544,3.805394 0.29542,0.3838 0.57276,0.6978 0.61632,0.6978 0.0435,0 0.46532,-0.22501 0.93731,-0.50002 z"
     id="path3960" /></svg>
