<?xml version="1.0" encoding="utf-8"?>
<!-- Generator: Adobe Illustrator 24.1.2, SVG Export Plug-In . SVG Version: 6.00 Build 0)  -->
<svg version="1.1"
	 id="svg38" xmlns:cc="http://creativecommons.org/ns#" xmlns:dc="http://purl.org/dc/elements/1.1/" xmlns:inkscape="http://www.inkscape.org/namespaces/inkscape" xmlns:rdf="http://www.w3.org/1999/02/22-rdf-syntax-ns#" xmlns:sodipodi="http://sodipodi.sourceforge.net/DTD/sodipodi-0.dtd" xmlns:svg="http://www.w3.org/2000/svg"
	 xmlns="http://www.w3.org/2000/svg" xmlns:xlink="http://www.w3.org/1999/xlink" x="0px" y="0px" viewBox="0 0 595.2 595.3"
	 style="enable-background:new 0 0 595.2 595.3;" xml:space="preserve">
<style type="text/css">
	.st0{fill-rule:evenodd;clip-rule:evenodd;fill:#21252B;}
	.st1{fill-rule:evenodd;clip-rule:evenodd;fill:#E4E37F;}
	.st2{fill:#E4E37F;}
</style>
<sodipodi:namedview  bordercolor="#666666" borderopacity="1" gridtolerance="10" guidetolerance="10" id="namedview40" inkscape:current-layer="svg38" inkscape:cx="183.71765" inkscape:cy="243.35059" inkscape:pageopacity="0" inkscape:pageshadow="2" inkscape:window-height="1008" inkscape:window-maximized="0" inkscape:window-width="1757" inkscape:window-x="0" inkscape:window-y="0" inkscape:zoom="1.6601562" objecttolerance="10" pagecolor="#ffffff" showgrid="false">
	</sodipodi:namedview>
<g id="g30" transform="matrix(1.07441,0,0,1.10624,57.6246,5.28005)">
	<ellipse id="ellipse28" class="st0" cx="223.4" cy="264.2" rx="266.2" ry="258.5"/>
</g>
<path id="path32" class="st1" d="M297.6,0c164.3,0,297.6,133.4,297.6,297.6S461.9,595.3,297.6,595.3S0,461.9,0,297.6
	S133.4,0,297.6,0z M297.6,11.6c157.9,0,286,128.2,286,286s-128.2,286-286,286s-286-128.2-286-286S139.8,11.6,297.6,11.6z"/>
<path class="st2" d="M353.3,311.4c3.7,21.5,6.1,43.3,7.4,65.1c0.4,13.6-3.6,26.9-11.3,38.1c-1.8,6.5-7.3,0-11.2,0
	c-9.6,0-13.1-10.4-18.3-16.8s-1.5-12.2,2-17.3c3.7-2.7,5.2-8.6,10.5-8.6s4.7-7.3,3.9-11.2c3.5-5.4,1.4-13.5,4.8-19.4
	c6.2-2.8,4.4-12.4,6.6-17.9c1.7-3.9,0-11.3,4.9-13c0,0,0.6,0,0.5,0.9 M347.3,89.3c-8.1-1-14.3,4.6-21.1,7.7
	c-5.7,1.9-11.4,3.4-17.3,4.7c-4.2,8.6-14,13.7-19.3,21.9c-5.4,16.1-15.4,30.3-28.9,40.8c-19.2,9.9-28.9,31.6-35.2,51.9
	c-2.2,4.6-1.8,11.3-4.1,15.2c-7.6,2.2-3.5-7.8-4.4-12.5c-1.1-7.1,5.1-11.7,5.5-18.6c2.6-4.9,3.7-10.5,3.1-16
	c-0.9-12.4,2.9-27.4-5.9-37.5c-5.2-3-3.5-9.4-5.4-14.3c-5.2-7-11.7-12.9-19.3-17.3c-6.2-0.6-11.9-8.6-18.3-4.9
	c-4,4.7-11.3,4.6-13.7,10.8c-1.5,7.8-10.2,5.7-15.9,7.6c-7.3,2.9-16.6,0-22.6,5.8c-6,5.8-15.7,14.3-12.8,24
	c6.8,13.4,24.5,6.7,34.1,14.8c-3,9-6.5,17.8-10.5,26.5c-1.6,11.7-1.8,23.6-0.7,35.4c1.8,11.8-1.2,26.9,8.6,35.2
	c5.6,2.1,5.3,8.6,7.4,13.5s6.3-1.7,8,2.9c5,2.8,0.5,8.6,3.3,12.1c4.6,0.9,8.9,3.2,12.2,6.5c5.3,3.7,10.3,7.9,14.8,12.5
	c3.5,7.1,7.9-6.9,11.7-1.6c1.8,4.4,6.8,6.6,11.3,4.8c0.3-0.1,0.6-0.3,0.9-0.4c7-1.2,13.7-4.1,19.4-8.4c3.7,13.2,0.9,27.6,2.5,41.2
	c2.3,10,3.7,20.1,4.3,30.3c2.6,10.1,4.1,20.4,4.5,30.8c2.8,21.6-0.9,43.5-10.5,63c-1.2,6.1-5.9,10.9-12,12.1
	c-4.3,2-13.3,5.5-10.3,11.8c10,8.6,25.9,7.7,37.4,3.3c7.6-3.7,1-13,4.9-18.6c5.1-19.7,2.6-40.8,8.6-60.5c4.7-9.9,6.4-21,5.1-31.9
	c1.2-6.7-1.6-14.7,2.8-20.1c0.1-6.7,2.6-13.1,7-18.2c1.4-10.2,2.1-20.4,2.2-30.7c6.1-1.9,12.5-2.6,18.8-1.9c0,5.7-4.1,12.3-2.9,18.7
	c1.3,7.2-0.1,14.6-3.9,20.8c-2.7,11.2-4.5,25.1,2.5,34.6c11.6,12.7,26.7,21.7,37.7,35.3c3.4,2.8,4,7.8,1.2,11.2
	c-0.2,0.3-0.4,0.5-0.7,0.7c-2,7.3-7.5,13.2-14.7,15.6c-4.6,1.8-11.9,8.6-6.6,13.4c10.8,2.4,22,1.7,32.4-2.2
	c7.1-2.6,4.5-11.2,7.3-16.5c3.8,5.2,7.3,10.6,10.5,16.2c4.4,6.6,12,1.1,17.3-1c0.6-9.6-1.3-19.2-5.6-27.8
	c-2.4-5.7-11.8-5.9-11.4-12.9c4.7-17.3,16.3-30.8,25.4-45.4c7.6-7.3,1.9-18.1,2.3-27.2c-2.4-23.5,3.3-47.2,16.2-67.1
	c2.7,11,6.1,21.9,10.3,32.4c3,12.4,8.5,24,16.1,34.2c3.5,12.3,2.6,25.9,4.9,38.6c3.3,22,2.1,44.4-3.6,65.9
	c0.6,7.9-6.8,13.7-6.1,21.4c2.1,7.1,10.4,1.4,14.7,4.4c7.8,2.4,16.2-1.3,19.7-8.6c-1.8-6-3-12.2-3.6-18.4
	c-5.9-18.2-7.2-37.5-3.8-56.4c0.7-10.2,6.8-22.6-1.1-31.4c-2.2-9.3,1.6-19.4-0.7-29c-5.3-24.6-5.9-50-1.8-74.8
	c1.4-3.5,0-9.9,3.7-11.8c3.7,5.5,5.3,12.1,4.7,18.7c3.4,10.2,3.8,21.1,1.2,31.6c-6.3,8-2.4,18.9-1.6,28c1,6.4,7.7,1.8,8.6-2.2
	c5.8-10.8,10.5-22.2,14-34c4-5.4,0-11.7,0-17.3c6.1-0.8,3.8-7.7,0.5-10.7c-3.3-11.1-2.5-23.9-9.9-33.3
	c-11.8-12.2-21.5-26.1-28.9-41.3c-7.9-24.8-30.3-41.3-37.9-66.4c-2.9-14.5-11.6-27.3-24.1-35.2c-5.6-2.6-11.4-4.7-17.3-6.3
	C357.5,88.3,352.4,89,347.3,89.3"/>
</svg>
