<?xml version="1.0" encoding="UTF-8" standalone="no"?>
<!DOCTYPE svg PUBLIC "-//W3C//DTD SVG 1.1//EN" "http://www.w3.org/Graphics/SVG/1.1/DTD/svg11.dtd">
<svg width="100%" height="100%" viewBox="0 0 512 512" version="1.1" xmlns="http://www.w3.org/2000/svg" xmlns:xlink="http://www.w3.org/1999/xlink" xml:space="preserve" xmlns:serif="http://www.serif.com/" style="fill-rule:evenodd;clip-rule:evenodd;stroke-linejoin:round;stroke-miterlimit:1.41421;">
    <g transform="matrix(1.07441,0,0,1.10624,57.6246,5.28005)">
        <ellipse cx="184.637" cy="226.642" rx="228.963" ry="222.375" style="fill:rgb(33,37,43);"/>
    </g>
    <path d="M256,0C397.29,0 512,114.71 512,256C512,397.29 397.29,512 256,512C114.71,512 0,397.29 0,256C0,114.71 114.71,0 256,0ZM256,10C391.771,10 502,120.229 502,256C502,391.771 391.771,502 256,502C120.229,502 10,391.771 10,256C10,120.229 120.229,10 256,10Z" style="fill:rgb(228,227,127);"/>
    <g transform="matrix(1.68037,0,0,1.67946,67.0407,76.527)">
        <path d="M158.751,194.367L47.514,179.559L9.27,180.439L158.751,194.367ZM186.055,192.735L142.199,119.536L55.366,175.425L186.055,192.735ZM191.79,191.258L146.424,116.909L199.645,37.394L191.79,191.258ZM45.115,172.573L23.994,119.261L0.966,173.978L45.115,172.573ZM50.197,170.48L136.678,115.527L68.912,93.506L50.197,170.48ZM46.129,159.712L62.512,92.531L27.211,110.64L46.129,159.712ZM0.355,158.429L21.031,110.246L11.781,100.999L0.355,158.429ZM142.733,109.707L191.221,37.376L118.191,49.722L142.733,109.707ZM136.575,108.859L111.72,49.383L70.164,87.523L136.575,108.859ZM24.937,103.54L63.521,84.555L108.532,43.125L120.653,19.237L106.561,13.681L70.094,34.105L32.541,68.708L14.968,94.554L24.937,103.54ZM116.34,43.28L128.523,18.948L182.972,33.387L116.34,43.28ZM198.861,31.784L141.891,16.141L189.696,5.335L198.861,31.784ZM116.819,10.321L124.864,12.902L162.823,4.222L116.819,10.321Z" style="fill:rgb(228,227,127);"/>
    </g>
</svg>
