<?xml version="1.0" encoding="UTF-8" standalone="no"?>
<svg
   xmlns:dc="http://purl.org/dc/elements/1.1/"
   xmlns:cc="http://creativecommons.org/ns#"
   xmlns:rdf="http://www.w3.org/1999/02/22-rdf-syntax-ns#"
   xmlns:svg="http://www.w3.org/2000/svg"
   xmlns="http://www.w3.org/2000/svg"
   version="1.1"
   id="Layer_1"
   x="0px"
   y="0px"
   width="160"
   height="160"
   viewBox="19 19 117.77778 117.77778"
   xml:space="preserve"><metadata
     id="metadata8"><rdf:RDF><cc:Work
         rdf:about=""><dc:format>image/svg+xml</dc:format><dc:type
           rdf:resource="http://purl.org/dc/dcmitype/StillImage" /><dc:title></dc:title></cc:Work></rdf:RDF></metadata><defs
     id="defs6" /><g
     transform="translate(-164.19542,10.789546)"
     style="display:inline"
     id="layer2"><g
       transform="matrix(0.23023071,0,0,0.23023071,183.19542,8.1101109)"
       id="g47"
       style="clip-rule:evenodd;fill-rule:evenodd;stroke-linejoin:round;stroke-miterlimit:1.41420996"><g
         transform="matrix(1.07441,0,0,1.10624,57.6246,5.28005)"
         id="g32">
        <ellipse
   cx="184.63699"
   cy="226.642"
   rx="228.963"
   ry="222.375"
   style="fill:#21252b"
   id="ellipse30" />
    </g><path
         d="M 256,0 C 397.29,0 512,114.71 512,256 512,397.29 397.29,512 256,512 114.71,512 0,397.29 0,256 0,114.71 114.71,0 256,0 Z m 0,10 C 391.771,10 502,120.229 502,256 502,391.771 391.771,502 256,502 120.229,502 10,391.771 10,256 10,120.229 120.229,10 256,10 Z"
         style="fill:#e4e37f;fill-opacity:1"
         id="path34" /></g></g><g
     transform="translate(-164.19542,10.789546)"
     id="layer3"><path
       style="fill:#e4e37f;fill-opacity:1;stroke-width:0.88563454"
       id="path3"
       d="m 287.86009,65.979947 -3.89148,-2.408926 c -0.0328,-0.379052 -0.07,-0.757218 -0.1107,-1.133613 l 3.34416,-3.119205 c 0.34008,-0.317056 0.4924,-0.786444 0.40029,-1.240773 -0.0896,-0.456101 -0.40916,-0.831609 -0.844,-0.993682 l -4.27496,-1.59857 c -0.10712,-0.370195 -0.21964,-0.737732 -0.33478,-1.1035 l 2.66665,-3.703723 c 0.2719,-0.376395 0.32769,-0.866151 0.15057,-1.295684 -0.17715,-0.427762 -0.56415,-0.734191 -1.02201,-0.809471 l -4.50789,-0.733304 c -0.17536,-0.341854 -0.3578,-0.678396 -0.54201,-1.01228 l 1.89436,-4.158056 c 0.19396,-0.423332 0.15411,-0.915743 -0.10452,-1.300111 -0.25773,-0.386136 -0.69435,-0.611973 -1.16017,-0.59426 l -4.57521,0.159413 c -0.23646,-0.295802 -0.47735,-0.588944 -0.72266,-0.876777 l 1.05123,-4.456514 c 0.10633,-0.452559 -0.0274,-0.926374 -0.3569,-1.254944 -0.32681,-0.327685 -0.80151,-0.463188 -1.25405,-0.356912 l -4.45563,1.050362 c -0.28872,-0.244432 -0.58187,-0.486211 -0.87855,-0.722677 l 0.1603,-4.575187 c 0.0176,-0.463188 -0.20814,-0.903348 -0.59428,-1.160182 -0.38701,-0.258606 -0.87675,-0.297573 -1.29921,-0.105393 l -4.15717,1.895257 c -0.33566,-0.184213 -0.67221,-0.366653 -1.01229,-0.542892 l -0.73507,-4.508768 c -0.0744,-0.456986 -0.38081,-0.844893 -0.80946,-1.022023 -0.42777,-0.178011 -0.91841,-0.120446 -1.29481,0.15056 l -3.70637,2.666645 c -0.36489,-0.116012 -0.73154,-0.227609 -1.10173,-0.333884 l -1.59858,-4.275844 c -0.16207,-0.435732 -0.53758,-0.755445 -0.99368,-0.84578 -0.45523,-0.08945 -0.92371,0.06198 -1.23989,0.400307 l -3.1192,3.346812 c -0.37639,-0.04163 -0.75544,-0.07971 -1.13362,-0.110701 l -2.40892,-3.892364 c -0.24356,-0.394108 -0.67486,-0.634115 -1.13893,-0.634115 -0.46407,0 -0.89537,0.240007 -1.13804,0.634115 l -2.40892,3.892364 c -0.37904,0.031 -0.75811,0.06908 -1.13451,0.110701 l -3.12008,-3.34681 c -0.31618,-0.338313 -0.78556,-0.489757 -1.23988,-0.400307 -0.45611,0.09123 -0.83162,0.410048 -0.99369,0.84578 l -1.59858,4.275844 c -0.37019,0.106279 -0.73683,0.218753 -1.10261,0.333884 l -3.70548,-2.666645 c -0.3764,-0.271889 -0.86704,-0.329456 -1.2957,-0.15056 -0.42776,0.17713 -0.73508,0.565037 -0.80947,1.022024 l -0.73506,4.508767 c -0.34009,0.17624 -0.67663,0.357795 -1.01228,0.542893 l -4.15717,-1.895257 c -0.42245,-0.193069 -0.91488,-0.153217 -1.29924,0.105394 -0.38613,0.256834 -0.61197,0.696993 -0.59427,1.160182 l 0.15943,4.575187 c -0.2958,0.236465 -0.58894,0.478244 -0.87855,0.722677 l -4.45562,-1.050362 c -0.45257,-0.105394 -0.92726,0.02923 -1.25496,0.356911 -0.32945,0.328571 -0.46319,0.802386 -0.35692,1.254944 l 1.0495,4.456514 c -0.24355,0.288717 -0.48445,0.580975 -0.72091,0.876777 l -4.57518,-0.159413 c -0.46142,-0.01329 -0.90247,0.208125 -1.16021,0.594261 -0.2586,0.384367 -0.29755,0.876778 -0.10526,1.300111 l 1.89526,4.158056 c -0.1842,0.333884 -0.36666,0.670425 -0.54291,1.012279 l -4.50786,0.733305 c -0.45787,0.07438 -0.84399,0.380823 -1.02203,0.80947 -0.17712,0.429533 -0.11955,0.919289 0.15059,1.295684 l 2.66663,3.703723 c -0.11603,0.365768 -0.2285,0.733305 -0.33478,1.1035 l -4.27584,1.59857 c -0.43394,0.162073 -0.75367,0.537581 -0.84401,0.993683 -0.0903,0.455216 0.0612,0.923716 0.40031,1.240773 l 3.34503,3.119206 c -0.0416,0.376393 -0.0789,0.755444 -0.1107,1.133613 l -3.89148,2.408924 c -0.39411,0.243551 -0.63412,0.673968 -0.63412,1.138926 0,0.464959 0.24001,0.895376 0.63412,1.138042 l 3.89148,2.408925 c 0.0318,0.379051 0.069,0.757219 0.1107,1.133612 l -3.34503,3.120091 c -0.3392,0.316171 -0.49064,0.785557 -0.40031,1.239888 0.0903,0.456103 0.41007,0.830726 0.84401,0.993683 l 4.27584,1.598569 c 0.10633,0.370197 0.21875,0.737735 0.33478,1.103501 l -2.66663,3.70461 c -0.27102,0.377281 -0.32861,0.867036 -0.15059,1.294798 0.17804,0.429539 0.56505,0.735963 1.02292,0.809469 l 4.50697,0.73331 c 0.17625,0.341855 0.35692,0.678397 0.54291,1.01405 l -1.89526,4.156284 c -0.19307,0.422451 -0.15321,0.913973 0.10526,1.300116 0.25862,0.38702 0.69879,0.612849 1.16021,0.594256 l 4.57341,-0.160303 c 0.23823,0.297579 0.47824,0.588944 0.72268,0.878554 l -1.0495,4.457383 c -0.10633,0.451668 0.0274,0.923695 0.35692,1.25228 0.3268,0.330336 0.80239,0.462286 1.25496,0.356026 l 4.45562,-1.049494 c 0.28961,0.246209 0.58275,0.485329 0.87855,0.720926 l -0.15943,4.576038 c -0.0176,0.46319 0.20814,0.90246 0.59427,1.16105 0.38436,0.25773 0.87679,0.2967 1.29924,0.10377 l 4.15717,-1.89436 c 0.33475,0.18597 0.6713,0.36664 1.01228,0.5429 l 0.73506,4.50609 c 0.0744,0.45875 0.38083,0.84667 0.80947,1.0229 0.42777,0.17803 0.9193,0.12046 1.2957,-0.14966 l 3.70371,-2.66841 c 0.36578,0.11601 0.7333,0.22936 1.10349,0.33564 l 1.59857,4.27408 c 0.16208,0.43396 0.53759,0.75544 0.9937,0.84402 0.45521,0.0922 0.9237,-0.0601 1.23988,-0.40033 l 3.12009,-3.34502 c 0.3764,0.0433 0.75545,0.0796 1.13449,0.11334 l 2.40894,3.89149 c 0.24265,0.39233 0.67396,0.6341 1.13803,0.6341 0.46407,0 0.89539,-0.2409 1.13894,-0.6341 l 2.40892,-3.89149 c 0.37906,-0.0337 0.75721,-0.07 1.13363,-0.11334 l 3.11919,3.34502 c 0.31617,0.3401 0.78554,0.49242 1.23988,0.40033 0.4561,-0.0895 0.83162,-0.41006 0.99368,-0.84402 l 1.59858,-4.27408 c 0.3702,-0.10633 0.73773,-0.21964 1.1035,-0.33564 l 3.70461,2.66841 c 0.3764,0.27012 0.86702,0.32769 1.29479,0.14966 0.42865,-0.17623 0.73509,-0.56503 0.80947,-1.0229 l 0.73509,-4.50609 c 0.34008,-0.17626 0.67663,-0.35957 1.01228,-0.5429 l 4.15716,1.89436 c 0.42246,0.19308 0.91398,0.1541 1.29921,-0.10377 0.38615,-0.25859 0.61111,-0.69698 0.59428,-1.16105 l -0.15941,-4.576038 c 0.29581,-0.236483 0.58894,-0.474717 0.87765,-0.720926 l 4.45565,1.049494 c 0.45254,0.10633 0.92724,-0.0258 1.25405,-0.356026 0.32945,-0.328585 0.46318,-0.800612 0.3569,-1.25228 l -1.04948,-4.457383 c 0.24444,-0.28961 0.48533,-0.580975 0.72092,-0.878554 l 4.57518,0.160303 c 0.46142,0.01856 0.90247,-0.207236 1.16018,-0.594256 0.2586,-0.386143 0.29845,-0.877665 0.10451,-1.300116 l -1.89436,-4.156284 c 0.1851,-0.335653 0.36666,-0.672195 0.54199,-1.01405 l 4.5079,-0.73331 c 0.45876,-0.07354 0.84488,-0.37993 1.02202,-0.809469 0.17712,-0.427762 0.12133,-0.917517 -0.15056,-1.294798 l -2.66666,-3.70461 c 0.11508,-0.365766 0.22763,-0.733304 0.33478,-1.103501 l 4.27497,-1.598569 c 0.43484,-0.162957 0.75544,-0.53758 0.84399,-0.993683 0.0922,-0.455216 -0.0601,-0.923717 -0.40029,-1.239888 l -3.34416,-3.120091 c 0.0407,-0.376393 0.0779,-0.755446 0.1107,-1.133612 l 3.89148,-2.408925 c 0.39411,-0.242666 0.63412,-0.673969 0.63412,-1.138042 0,-0.464073 -0.23912,-0.895375 -0.63323,-1.138926 z m -26.04563,32.282262 c -1.4861,-0.320596 -2.43107,-1.785437 -2.11225,-3.275951 0.31795,-1.488759 1.78191,-2.436384 3.26713,-2.11579 1.48609,0.31795 2.43283,1.785448 2.114,3.273306 -0.31883,1.487858 -1.78368,2.436376 -3.26888,2.118435 z m -1.32225,-8.943132 c -1.35591,-0.290487 -2.68968,0.572119 -2.98015,1.930681 l -1.3816,6.447412 c -4.26344,1.935085 -8.99804,3.01026 -13.98417,3.01026 -5.10036,0 -9.9377,-1.12831 -14.27733,-3.145758 l -1.38068,-6.447411 c -0.2905,-1.356796 -1.62427,-2.221179 -2.97927,-1.929802 l -5.692,1.222175 c -1.05655,-1.087557 -2.03961,-2.245962 -2.94297,-3.469027 h 27.69557 c 0.31354,0 0.52254,-0.05664 0.52254,-0.341855 V 76.79886 c 0,-0.285175 -0.209,-0.341856 -0.52254,-0.341856 h -8.09998 v -6.21007 h 8.76067 c 0.79973,0 4.27585,0.228493 5.38732,4.671723 0.34806,1.366535 1.11236,5.811534 1.63488,7.234749 0.52076,1.595915 2.64096,4.784201 4.90022,4.784201 h 13.80083 c 0.15677,0 0.32416,-0.01767 0.5004,-0.04961 -0.95738,1.300994 -2.00775,2.532027 -3.1387,3.682465 z m -38.30546,8.808512 c -1.4861,0.320595 -2.94917,-0.627031 -3.26889,-2.115767 -0.31793,-1.491414 0.62704,-2.955367 2.11312,-3.275962 1.48611,-0.317949 2.95005,0.629687 3.26888,2.118434 0.31794,1.487869 -0.62791,2.954467 -2.11311,3.273295 z M 211.68047,55.524146 c 0.61639,1.391332 -0.01,3.021785 -1.4002,3.637301 -1.38956,0.617287 -3.01558,-0.01057 -3.63197,-1.402844 -0.61641,-1.392217 0.01,-3.020015 1.40018,-3.637302 1.39042,-0.616401 3.01558,0.01057 3.63199,1.402845 z m -3.22904,7.654539 5.92932,-2.634763 c 1.26647,-0.562377 1.83858,-2.0467 1.27623,-3.315816 l -1.2213,-2.761406 h 4.80279 v 21.64845 h -9.68972 c -0.84049,-2.954476 -1.29128,-6.072797 -1.29128,-9.295621 0,-1.230147 0.0665,-2.446122 0.19396,-3.640844 z m 26.01996,-2.102497 v -6.380996 h 11.43708 c 0.59072,0 4.17134,0.682826 4.17134,3.360098 0,2.222941 -2.74636,3.020011 -5.00474,3.020011 h -10.60368 z m 41.56458,5.743341 c 0,0.846666 -0.0311,1.684476 -0.093,2.516087 h -3.47698 c -0.34806,0 -0.48799,0.228494 -0.48799,0.569463 v 1.5968 c 0,3.758633 -2.11933,4.576073 -3.97651,4.784199 -1.76862,0.199266 -3.72941,-0.740391 -3.97118,-1.822637 -1.04328,-5.868215 -2.78178,-7.121389 -5.52726,-9.286764 3.40705,-2.163606 6.95225,-5.355433 6.95225,-9.627732 0,-4.613273 -3.16261,-7.519037 -5.31824,-8.944024 -3.02444,-1.993564 -6.37303,-2.392984 -7.27638,-2.392984 H 216.9013 c 4.87629,-5.442226 11.48491,-9.297393 18.95965,-10.700239 l 4.23866,4.446773 c 0.95825,1.003424 2.54531,1.04062 3.54784,0.08149 l 4.74257,-4.536221 c 9.93772,1.850092 18.35124,8.03625 23.20009,16.523285 l -3.24673,7.333055 c -0.56063,1.269114 0.0117,2.753437 1.27708,3.315814 l 6.25081,2.776464 c 0.10799,1.109702 0.16473,2.230913 0.16473,3.367184 z M 240.10135,29.729154 c 1.09819,-1.052135 2.84023,-1.010509 3.89149,0.08945 1.04948,1.102615 1.00961,2.846429 -0.0912,3.897678 -1.09821,1.052132 -2.84023,1.011394 -3.89149,-0.09034 -1.04859,-1.100843 -1.00874,-2.844659 0.0912,-3.896792 z m 32.21939,25.928724 c 0.61552,-1.391333 2.24155,-2.019247 3.63111,-1.401959 1.38954,0.6164 2.01659,2.245967 1.40019,3.637298 -0.61552,1.392218 -2.24156,2.020133 -3.632,1.402846 -1.38779,-0.616402 -2.01481,-2.245082 -1.3993,-3.638185 z" /></g></svg>