<?xml version="1.0" encoding="UTF-8" standalone="no"?>
<svg
   xmlns:dc="http://purl.org/dc/elements/1.1/"
   xmlns:cc="http://creativecommons.org/ns#"
   xmlns:rdf="http://www.w3.org/1999/02/22-rdf-syntax-ns#"
   xmlns:svg="http://www.w3.org/2000/svg"
   xmlns="http://www.w3.org/2000/svg"
   version="1.1"
   id="Layer_1"
   x="0px"
   y="0px"
   width="160"
   height="160"
   viewBox="19 19 117.77778 117.77778"
   xml:space="preserve"><metadata
     id="metadata8"><rdf:RDF><cc:Work
         rdf:about=""><dc:format>image/svg+xml</dc:format><dc:type
           rdf:resource="http://purl.org/dc/dcmitype/StillImage" /><dc:title></dc:title></cc:Work></rdf:RDF></metadata><defs
     id="defs6" /><g
     transform="translate(-164.19542,10.789546)"
     style="display:inline"
     id="layer2"><g
       transform="matrix(0.23023071,0,0,0.23023071,183.19542,8.1101109)"
       id="g47"
       style="clip-rule:evenodd;fill-rule:evenodd;stroke-linejoin:round;stroke-miterlimit:1.41420996"><g
         transform="matrix(1.07441,0,0,1.10624,57.6246,5.28005)"
         id="g32">
        <ellipse
   style="fill:#21252b"
   id="ellipse30"
   ry="222.375"
   rx="228.963"
   cy="226.642"
   cx="184.63699" />
    </g><path
         d="M 256,0 C 397.29,0 512,114.71 512,256 512,397.29 397.29,512 256,512 114.71,512 0,397.29 0,256 0,114.71 114.71,0 256,0 Z m 0,10 C 391.771,10 502,120.229 502,256 502,391.771 391.771,502 256,502 120.229,502 10,391.771 10,256 10,120.229 120.229,10 256,10 Z"
         style="fill:#84e47f;fill-opacity:1"
         id="path34" /></g></g><g
     id="g4524"
     transform="matrix(0.36671961,0,0,0.36596262,-55.313616,-102.43635)"><path
       id="path3856"
       d="m 311.42857,413.79075 c 20.00242,-14.77931 37.81784,2.78578 37.85715,16.07143 l -37.32143,-7.67857 z"
       style="fill:#84e47f;fill-rule:evenodd;stroke:#44a53e;stroke-width:7;stroke-linecap:butt;stroke-linejoin:miter;stroke-miterlimit:4;stroke-dasharray:none;stroke-opacity:1;fill-opacity:1" /><path
       id="path3858"
       d="m 339.64286,411.82647 c 13.16602,-10.51311 33.09975,-4.47917 37.5,1.42857 l -0.71429,26.42857 -35.53571,-1.25 z"
       style="fill:#84e47f;fill-rule:evenodd;stroke:#44a53e;stroke-width:7;stroke-linecap:butt;stroke-linejoin:miter;stroke-miterlimit:4;stroke-dasharray:none;stroke-opacity:1;fill-opacity:1" /><path
       id="path3860"
       d="M 406.42857,416.46932 C 383.78197,396.09819 364.28502,423.70731 365,430.04075 l 30.71429,11.25 z"
       style="fill:#84e47f;fill-rule:evenodd;stroke:#44a53e;stroke-width:7;stroke-linecap:butt;stroke-linejoin:miter;stroke-miterlimit:4;stroke-dasharray:none;stroke-opacity:1;fill-opacity:1" /><path
       id="path3844"
       d="m 310.71429,414.50504 c -51.64766,-7.10482 -66.48995,108.80243 -67.85715,132.5 7.47615,11.86515 20.92094,13.78257 33.92857,16.42857 -2.91269,-1.90012 -3.56464,-7.14786 -2.21041,-15.36631 3.68216,-22.34597 21.83886,-119.51139 50.4247,-125.34798 -3.0839,-3.48387 -6.95641,-6.61725 -14.28571,-8.21428 z"
       style="fill:#84e47f;fill-rule:evenodd;stroke:#44a53e;stroke-width:7;stroke-linecap:butt;stroke-linejoin:miter;stroke-miterlimit:4;stroke-dasharray:none;stroke-opacity:1;fill-opacity:1" /><path
       id="path3848"
       d="m 323.92857,423.43361 c 10.40626,0.39182 20.9408,0.35607 28.57143,10 -3.9671,4.39322 -9.07897,8.16901 -10.21578,13.43744 -9.77341,45.2939 -21.13259,109.65935 -15.14136,120.13399 -21.89839,8.88278 -39.63899,9.07201 -51.07143,-3.92857 -3.11956,-2.83283 -2.76596,-9.13881 -2.14286,-15.71429 12.92405,-53.03638 23.41048,-113.71065 50,-123.92857 z"
       style="fill:#84e47f;fill-rule:evenodd;stroke:#44a53e;stroke-width:7;stroke-linecap:butt;stroke-linejoin:miter;stroke-miterlimit:4;stroke-dasharray:none;stroke-opacity:1;fill-opacity:1" /><path
       id="path3850"
       d="m 348.21429,437.00504 c 8.85859,-10.77118 33.90601,-6.73469 35.35714,0 19.66548,52.54131 25.45989,118.18493 23.92857,132.14286 -21.34285,13.50954 -58.30108,13.39004 -81.42857,0 -0.80596,-32.82787 7.65491,-88.69105 15.26966,-119.67755 1.42012,-5.77883 4.39473,-9.8778 6.8732,-12.46531 z"
       style="fill:#84e47f;fill-rule:evenodd;stroke:#44a53e;stroke-width:7;stroke-linecap:butt;stroke-linejoin:miter;stroke-miterlimit:4;stroke-dasharray:none;stroke-opacity:1;fill-opacity:1" /><path
       style="fill:#84e47f;fill-rule:evenodd;stroke:#44a53e;stroke-width:7;stroke-linecap:butt;stroke-linejoin:miter;stroke-miterlimit:4;stroke-dasharray:none;stroke-opacity:1;fill-opacity:1"
       d="m 404.22405,426.6479 c -8.62055,-2.10818 -18.79794,-4.28679 -26.42857,5.35714 3.9671,4.39322 9.07897,8.16901 10.21578,13.43744 9.77341,45.2939 24.70402,111.80221 18.71279,122.27685 22.25553,7.09706 38.9247,2.28629 47.5,-6.07143 3.11956,-2.83283 0.26596,-9.13881 -0.35714,-15.71429 C 440.94286,492.89723 430.81357,436.86582 404.22405,426.6479 Z"
       id="path3852" /><path
       style="fill:#84e47f;fill-rule:evenodd;stroke:#44a53e;stroke-width:7;stroke-linecap:butt;stroke-linejoin:miter;stroke-miterlimit:4;stroke-dasharray:none;stroke-opacity:1;fill-opacity:1"
       d="m 409.99999,415.93361 c 9.88633,-2.53225 25.33032,4.88871 27.98363,9.14406 24.11076,38.66868 42.50863,94.02572 45.58781,114.42737 1.45242,13.29372 -14.84952,19.49685 -27.85715,22.14285 2.91269,-1.90012 -0.0555,-10.24054 -2.43244,-18.22345 -7.61073,-25.56025 -18.26743,-114.86853 -57.56756,-119.27655 3.37462,-3.35466 6.72991,-6.71792 14.28571,-8.21428 z"
       id="path3854" /></g></svg>
