<?xml version="1.0" encoding="UTF-8" standalone="no"?>
<!DOCTYPE svg PUBLIC "-//W3C//DTD SVG 1.1//EN" "http://www.w3.org/Graphics/SVG/1.1/DTD/svg11.dtd">
<svg width="100%" height="100%" viewBox="0 0 512 512" version="1.1" xmlns="http://www.w3.org/2000/svg" xmlns:xlink="http://www.w3.org/1999/xlink" xml:space="preserve" xmlns:serif="http://www.serif.com/" style="fill-rule:evenodd;clip-rule:evenodd;stroke-linecap:round;stroke-linejoin:round;stroke-miterlimit:1.5;">
    <g transform="matrix(1.07441,0,0,1.10624,57.6246,5.28005)">
        <ellipse cx="184.637" cy="226.642" rx="228.963" ry="222.375" style="fill:rgb(33,37,43);"/>
    </g>
    <path d="M256,0C397.29,0 512,114.71 512,256C512,397.29 397.29,512 256,512C114.71,512 0,397.29 0,256C0,114.71 114.71,0 256,0ZM256,10C391.771,10 502,120.229 502,256C502,391.771 391.771,502 256,502C120.229,502 10,391.771 10,256C10,120.229 120.229,10 256,10Z" style="fill:rgb(132,228,127);"/>
    <g transform="matrix(0.399626,0,0,0.399909,53.784,19.1684)">
        <path d="M626.155,867.572L705.475,822.316C763.763,938.231 937.674,860.099 844.071,789.849C831.47,780.406 817.44,773.036 802.511,768.018C774.342,758.44 746.874,745.61 720.196,729.131C647.761,674.034 637.641,594.469 677.506,534.978C749.857,427.008 918.999,488.165 938.651,555.142L863.014,603.723C798.805,506.091 699.975,604.711 781.356,650C885.528,691.675 976.122,738.12 968.283,832.594C967.074,1006.81 693.113,1008.96 626.155,867.572Z" style="fill:rgb(132,228,127);stroke:black;stroke-width:1.88px;"/>
    </g>
    <g transform="matrix(0.399626,0,0,0.399909,53.784,19.1684)">
        <path d="M473.737,483.112L571.906,482.784C571.906,482.784 571.93,832.996 571.93,833.128C571.93,833.372 571.928,833.617 571.923,833.861C568.633,995.669 333.479,1012.98 277.111,878.234L356.263,829.994C373.126,882.781 448.122,905.21 469.267,848.219C472.032,840.72 473.45,832.791 473.456,824.799C473.512,776.035 473.737,483.112 473.737,483.112Z" style="fill:rgb(132,228,127);stroke:black;stroke-width:1.88px;"/>
    </g>
</svg>
