<?xml version="1.0" encoding="UTF-8" standalone="no"?>
<!DOCTYPE svg PUBLIC "-//W3C//DTD SVG 1.1//EN" "http://www.w3.org/Graphics/SVG/1.1/DTD/svg11.dtd">
<svg width="100%" height="100%" viewBox="0 0 512 512" version="1.1" xmlns="http://www.w3.org/2000/svg" xmlns:xlink="http://www.w3.org/1999/xlink" xml:space="preserve" xmlns:serif="http://www.serif.com/" style="fill-rule:evenodd;clip-rule:evenodd;stroke-linejoin:round;stroke-miterlimit:1.41421;">
    <g transform="matrix(1.07441,0,0,1.10624,57.6246,5.28005)">
        <ellipse cx="184.637" cy="226.642" rx="228.963" ry="222.375" style="fill:rgb(33,37,43);"/>
    </g>
    <g transform="matrix(3.27962,0,0,3.2801,-184.275,-33.3794)">
        <path d="M164.451,61.504C164.451,61.504 164.468,72.04 164.472,74.793C164.474,75.979 164.315,77.159 163.999,78.302C162.632,82.926 159.782,86.486 155.084,88.766C153.024,89.804 150.75,90.348 148.443,90.353C141.759,90.467 120.443,90.511 120.443,90.511C113.38,90.448 109.031,93.811 107.754,101.051C107.555,102.152 107.455,103.268 107.455,104.387C107.45,108.836 107.446,128.384 107.446,128.384C108.541,138.771 116.332,143.667 130.454,143.372C130.454,143.372 138.326,143.404 138.375,143.404C138.449,143.404 138.523,143.404 138.598,143.403C154.25,143.226 160.306,138.29 160.449,130.42L160.42,118.467L134.397,118.446L134.429,114.45L172.407,114.493C182.362,114.365 188.564,107.103 189.402,89.642C189.436,88.917 189.444,88.191 189.425,87.465C188.981,71.017 183.286,62.961 173.448,61.525L164.451,61.504ZM149.539,124.207C152.299,124.207 154.539,126.447 154.539,129.207C154.539,131.966 152.299,134.207 149.539,134.207C146.78,134.207 144.539,131.966 144.539,129.207C144.539,126.447 146.78,124.207 149.539,124.207ZM104.038,114.989C104.038,114.989 104.021,104.446 104.017,101.691C104.014,100.511 104.172,99.336 104.486,98.197C105.849,93.565 108.697,89.999 113.395,87.715C115.458,86.673 117.736,86.128 120.047,86.123C126.732,86.009 148.04,85.965 148.04,85.965C155.105,86.028 159.454,82.66 160.729,75.411C160.927,74.313 161.026,73.199 161.026,72.083C161.032,67.637 161.036,48.07 161.036,48.07C159.94,37.678 152.151,32.778 138.03,33.074C138.03,33.074 130.12,33.042 130.11,33.042C130.036,33.041 129.962,33.042 129.887,33.042C114.237,33.219 108.182,38.158 108.039,46.033L108.068,57.993L134.087,58.014L134.056,62.012L96.083,61.969C86.128,62.097 79.927,69.364 79.09,86.837C79.056,87.561 79.048,88.285 79.066,89.01C79.51,105.469 85.204,113.53 95.042,114.967L104.038,114.989ZM119.266,41.081C122.026,41.081 124.266,43.321 124.266,46.081C124.266,48.84 122.026,51.081 119.266,51.081C116.506,51.081 114.266,48.84 114.266,46.081C114.266,43.321 116.506,41.081 119.266,41.081Z" style="fill:rgb(132,228,127);"/>
    </g>
    <path d="M256,0C397.29,0 512,114.71 512,256C512,397.29 397.29,512 256,512C114.71,512 0,397.29 0,256C0,114.71 114.71,0 256,0ZM256,10C391.771,10 502,120.229 502,256C502,391.771 391.771,502 256,502C120.229,502 10,391.771 10,256C10,120.229 120.229,10 256,10Z" style="fill:rgb(132,228,127);"/>
</svg>
