<?xml version="1.0" encoding="utf-8"?>
<!-- Generator: Adobe Illustrator 24.1.2, SVG Export Plug-In . SVG Version: 6.00 Build 0)  -->
<svg version="1.1"
	 id="svg38" xmlns:cc="http://creativecommons.org/ns#" xmlns:dc="http://purl.org/dc/elements/1.1/" xmlns:inkscape="http://www.inkscape.org/namespaces/inkscape" xmlns:rdf="http://www.w3.org/1999/02/22-rdf-syntax-ns#" xmlns:sodipodi="http://sodipodi.sourceforge.net/DTD/sodipodi-0.dtd" xmlns:svg="http://www.w3.org/2000/svg"
	 xmlns="http://www.w3.org/2000/svg" xmlns:xlink="http://www.w3.org/1999/xlink" x="0px" y="0px" viewBox="0 0 595.2 595.3"
	 style="enable-background:new 0 0 595.2 595.3;" xml:space="preserve">
<style type="text/css">
	.st0{fill-rule:evenodd;clip-rule:evenodd;fill:#21252B;}
	.st1{fill-rule:evenodd;clip-rule:evenodd;fill:#E47F8D;}
	.st2{display:none;fill:#E47F8D;}
	.st3{display:none;}
	.st4{display:inline;fill:#E47F8D;}
	.st5{fill:#E47F8D;}
	.st6{fill:#21252B;}
</style>
<sodipodi:namedview  bordercolor="#666666" borderopacity="1" gridtolerance="10" guidetolerance="10" id="namedview40" inkscape:current-layer="svg38" inkscape:cx="183.71765" inkscape:cy="243.35059" inkscape:pageopacity="0" inkscape:pageshadow="2" inkscape:window-height="1008" inkscape:window-maximized="0" inkscape:window-width="1757" inkscape:window-x="0" inkscape:window-y="0" inkscape:zoom="1.6601562" objecttolerance="10" pagecolor="#ffffff" showgrid="false">
	</sodipodi:namedview>
<g id="g30" transform="matrix(1.07441,0,0,1.10624,57.6246,5.28005)">
	<ellipse id="ellipse28" class="st0" cx="223.4" cy="264.2" rx="266.2" ry="258.5"/>
</g>
<path id="path32" class="st1" d="M297.6,0c164.3,0,297.6,133.4,297.6,297.6S461.9,595.3,297.6,595.3S0,461.9,0,297.6
	S133.4,0,297.6,0z M297.6,11.6c157.9,0,286,128.2,286,286s-128.2,286-286,286s-286-128.2-286-286S139.8,11.6,297.6,11.6z"/>
<g>
	<rect x="64.2" y="64.1" class="st2" width="467" height="467"/>
	<g>
		<g class="st3">
			<path class="st4" d="M473.5,159.4L326.1,71.9c-17.6-10.4-39.3-10.4-56.9,0l-147.4,87.5c-17.6,10.4-28.4,29.7-28.4,50.6v175
				c0,20.9,10.8,40.2,28.4,50.6l147.4,87.5c8.8,5.2,18.6,7.8,28.4,7.8c9.8,0,19.6-2.6,28.4-7.8l147.4-87.5
				c17.6-10.4,28.4-29.8,28.4-50.6V210C502,189.1,491.1,169.8,473.5,159.4z"/>
		</g>
		<g>
			<path class="st5" d="M473.5,159.4L326.1,71.9c-8.8-5.2-18.6-7.8-28.4-7.8c-9.8,0-19.6,2.6-28.4,7.8l-147.4,87.5
				c-17.6,10.4-28.4,29.7-28.4,50.6v175c0,20.9,10.8,40.2,28.4,50.6l147.4,87.5c8.8,5.2,18.6,7.8,28.4,7.8c9.8,0,19.6-2.6,28.4-7.8
				l147.4-87.5c17.6-10.4,28.4-29.8,28.4-50.6V210C502,189.1,491.1,169.8,473.5,159.4z M274.4,514.3l-147.4-87.5
				c-14.4-8.6-23.4-24.5-23.4-41.7V210c0-17.2,9-33.1,23.4-41.7l147.4-87.5c7.1-4.2,15.1-6.4,23.3-6.4c8.2,0,16.2,2.2,23.3,6.4
				l147.4,87.5c12.1,7.2,20.3,19.7,22.6,33.7c-4.9-10.4-15.9-13.3-28.8-5.8l-139.5,86.1c-17.4,10.2-30.2,21.6-30.2,42.5v171.9
				c0,12.6,5.1,20.7,12.8,23c-2.6,0.4-5.1,0.8-7.7,0.8C289.5,520.7,281.4,518.5,274.4,514.3z"/>
		</g>
	</g>
	<g>
		<path class="st6" d="M434.9,402l-36.7,22c-1,0.6-1.7,1.2-1.7,2.4v9.6c0,1.2,0.8,1.7,1.8,1.1l37.3-22.7c1-0.6,1.1-1.7,1.1-2.8v-8.5
			C436.6,401.9,435.8,401.4,434.9,402z"/>
	</g>
	<g>
		<path class="st6" d="M356.7,321.1c1.2-0.6,2.2,0.1,2.2,1.7l0.1,12.7c5.3-2.1,9.9-2.7,14.1-1.7c0.9,0.2,1.3,1.5,0.9,2.9l-2.8,11.3
			c-0.2,0.9-0.7,1.7-1.3,2.2c-0.2,0.2-0.5,0.4-0.7,0.5c-0.4,0.2-0.7,0.3-1.1,0.2c-1.9-0.4-6.5-1.4-13.6,2.2
			c-7.5,3.8-10.1,10.3-10.1,15.1c0.1,5.8,3,7.5,13.2,7.7c13.6,0.2,19.5,6.2,19.7,19.9c0.1,13.5-7.1,27.9-18.1,36.8l0.2,12.6
			c0,1.5-1,3.2-2.2,3.9l-7.4,4.3c-1.2,0.6-2.2-0.1-2.2-1.7l-0.1-12.4c-6.4,2.7-12.8,3.3-17,1.6c-0.8-0.3-1.1-1.5-0.8-2.8l2.7-11.4
			c0.2-0.9,0.7-1.8,1.3-2.4c0.2-0.2,0.5-0.4,0.7-0.5c0.4-0.2,0.8-0.3,1.2-0.1c4.4,1.5,10.1,0.8,15.6-2c7-3.5,11.6-10.6,11.5-17.7
			c-0.1-6.4-3.5-9-11.9-9.1c-10.7,0-20.7-2.1-20.9-17.8c-0.1-13,6.6-26.5,17.3-35l-0.1-12.7c0-1.6,0.9-3.3,2.2-3.9L356.7,321.1z"/>
	</g>
</g>
</svg>
