<?xml version="1.0" encoding="UTF-8" standalone="no"?>
<!DOCTYPE svg PUBLIC "-//W3C//DTD SVG 1.1//EN" "http://www.w3.org/Graphics/SVG/1.1/DTD/svg11.dtd">
<svg width="100%" height="100%" viewBox="0 0 512 512" version="1.1" xmlns="http://www.w3.org/2000/svg" xmlns:xlink="http://www.w3.org/1999/xlink" xml:space="preserve" xmlns:serif="http://www.serif.com/" style="fill-rule:evenodd;clip-rule:evenodd;stroke-linejoin:round;stroke-miterlimit:1.41421;">
    <g transform="matrix(1.07441,0,0,1.10624,57.6246,5.28005)">
        <ellipse cx="184.637" cy="226.642" rx="228.963" ry="222.375" style="fill:rgb(33,37,43);"/>
    </g>
    <path d="M256,0C397.29,0 512,114.71 512,256C512,397.29 397.29,512 256,512C114.71,512 0,397.29 0,256C0,114.71 114.71,0 256,0ZM256,10C391.771,10 502,120.229 502,256C502,391.771 391.771,502 256,502C120.229,502 10,391.771 10,256C10,120.229 120.229,10 256,10Z" style="fill:rgb(228,127,141);"/>
    <g transform="matrix(0.500042,0,0,0.50004,-13.4859,-14.9314)">
        <path d="M758.126,691.062L629.163,617.004C542.618,736.081 365.77,704.036 352.954,543.102C372.05,385.718 532.952,344.701 628.835,467.629L755.299,394.015C584.366,134.285 224.578,234.987 202.221,540.759C202.043,543.24 201.977,545.727 202.023,548.214C207.695,826.254 572.839,963.27 758.126,691.062Z" style="fill:rgb(228,127,141);"/>
    </g>
    <g transform="matrix(0.50011,0,0,0.500133,33.0497,-14.8099)">
        <path d="M675.792,618.823L679.556,577.712L658.023,577.487L657.73,555.112L681.234,554.628L685.29,520.036L664.498,520.315L664.308,497.597L688.001,496.659L691.172,458.739L716.588,459.038L712.021,496.527L740.269,496.387L744.472,458.835L768.301,458.693L764.856,496.807L786.039,497.47L786.502,520.406L762.667,520.542L759.294,553.734L779.754,554.285L779.768,577.58L756.246,578.135L752.61,619.839L728.1,620.15L731.311,577.452L704.081,577.173L699.908,619.003L675.792,618.823ZM706.234,554.339L710.136,520.72L737.945,520.284L734.279,553.84L706.234,554.339Z" style="fill:rgb(228,127,141);"/>
    </g>
</svg>
