<?xml version="1.0" encoding="UTF-8" standalone="no"?>
<!DOCTYPE svg PUBLIC "-//W3C//DTD SVG 1.1//EN" "http://www.w3.org/Graphics/SVG/1.1/DTD/svg11.dtd">
<svg width="100%" height="100%" viewBox="0 0 512 512" version="1.1" xmlns="http://www.w3.org/2000/svg" xmlns:xlink="http://www.w3.org/1999/xlink" xml:space="preserve" xmlns:serif="http://www.serif.com/" style="fill-rule:evenodd;clip-rule:evenodd;stroke-linejoin:round;stroke-miterlimit:1.41421;">
    <g transform="matrix(1.07441,0,0,1.10624,57.6246,5.28005)">
        <ellipse cx="184.637" cy="226.642" rx="228.963" ry="222.375" style="fill:rgb(33,37,43);"/>
    </g>
    <path d="M256,0C397.29,0 512,114.71 512,256C512,397.29 397.29,512 256,512C114.71,512 0,397.29 0,256C0,114.71 114.71,0 256,0ZM256,10C391.771,10 502,120.229 502,256C502,391.771 391.771,502 256,502C120.229,502 10,391.771 10,256C10,120.229 120.229,10 256,10Z" style="fill:rgb(228,127,141);"/>
    <g transform="matrix(1.99955,0,0,2.00027,32.4056,173.95)">
        <path d="M135.371,53.602C118.349,92.387 64.179,89.934 59.067,50.393C56.41,-1.645 124.893,-14.903 138.226,22.093L117.383,27.982C106.108,14.589 81.881,22.333 80.902,44.204C80.729,47.779 81.635,51.323 83.503,54.376C90.685,66.003 107.339,64.177 116.032,50.668L94.06,50.186L100.636,33.921L136.929,34.086C143.056,16.775 161.132,2.733 182.425,2.074C197.478,1.64 211.183,10.703 216.676,24.725C229.69,58.066 195.157,92.199 157.675,79.384C148.979,76.431 141.873,70.046 138.009,61.716C136.778,59.042 135.908,56.326 135.371,53.602ZM156.775,43.31C156.495,48.171 158.23,52.933 161.572,56.474C164.914,60.016 169.567,62.024 174.437,62.026C187.306,62.083 199.371,50.023 197.164,36.666C196.365,31.92 193.673,27.702 189.705,24.978C185.736,22.255 180.832,21.261 176.116,22.224C165.781,24.374 157.413,33.208 156.775,43.31ZM51.092,44.752L50.99,41.109L28.979,41.039L26.578,44.98L51.092,44.752ZM52.896,31.992L3.09,32.09L1.026,34.928L51.301,34.982L52.896,31.992ZM17.987,24.883L20.128,21.983L57.988,22.032L56.027,24.979L17.987,24.883Z" style="fill:rgb(228,127,141);"/>
    </g>
</svg>
