<?xml version="1.0" encoding="UTF-8" standalone="no"?>
<svg
   xmlns:dc="http://purl.org/dc/elements/1.1/"
   xmlns:cc="http://creativecommons.org/ns#"
   xmlns:rdf="http://www.w3.org/1999/02/22-rdf-syntax-ns#"
   xmlns:svg="http://www.w3.org/2000/svg"
   xmlns="http://www.w3.org/2000/svg"
   version="1.1"
   id="Layer_1"
   x="0px"
   y="0px"
   width="160"
   height="160"
   viewBox="19 19 117.77778 117.77778"
   xml:space="preserve"><metadata
     id="metadata8"><rdf:RDF><cc:Work
         rdf:about=""><dc:format>image/svg+xml</dc:format><dc:type
           rdf:resource="http://purl.org/dc/dcmitype/StillImage" /><dc:title></dc:title></cc:Work></rdf:RDF></metadata><defs
     id="defs6" /><g
     transform="translate(-164.19542,10.789546)"
     style="display:inline"
     id="layer2"><g
       transform="matrix(0.23023071,0,0,0.23023071,183.19542,8.1101109)"
       id="g47"
       style="clip-rule:evenodd;fill-rule:evenodd;stroke-linejoin:round;stroke-miterlimit:1.41420996"><g
         transform="matrix(1.07441,0,0,1.10624,57.6246,5.28005)"
         id="g32">
        <ellipse
   style="fill:#21252b"
   id="ellipse30"
   ry="222.375"
   rx="228.963"
   cy="226.642"
   cx="184.63699" />
    </g><path
         d="M 256,0 C 397.29,0 512,114.71 512,256 512,397.29 397.29,512 256,512 114.71,512 0,397.29 0,256 0,114.71 114.71,0 256,0 Z m 0,10 C 391.771,10 502,120.229 502,256 502,391.771 391.771,502 256,502 120.229,502 10,391.771 10,256 10,120.229 120.229,10 256,10 Z"
         style="fill:#e47f8d;fill-opacity:1"
         id="path34" /></g></g><g
     id="g2735"
     transform="matrix(0.50078376,0,0,0.50078376,35.32227,47.841864)"><g
       style="fill:#e47f8d;fill-opacity:1"
       id="g2715"><path
         d="M 0,120 40,60 0,0 h 30 l 40,60 -40,60"
         id="path2709"
         style="fill:#e47f8d;fill-opacity:1" /><path
         d="M 136.66667,85 123.33333,65 H 170 v 20"
         id="path2711"
         style="fill:#e47f8d;fill-opacity:1" /><path
         d="M 116.66667,55 103.33333,35 H 170 v 20"
         id="path2713"
         style="fill:#e47f8d;fill-opacity:1" /></g><g
       style="fill:#e4e37f;fill-opacity:1"
       id="g2719"><path
         d="M 40,120 80,60 40,0 h 30 l 80,120 H 120 L 95,82.5 70,120"
         id="path2717"
         style="fill:#e47f8d;fill-opacity:1" /></g></g></svg>
