<?xml version="1.0" encoding="UTF-8" standalone="no"?>
<!DOCTYPE svg PUBLIC "-//W3C//DTD SVG 1.1//EN" "http://www.w3.org/Graphics/SVG/1.1/DTD/svg11.dtd">
<svg width="100%" height="100%" viewBox="0 0 512 512" version="1.1" xmlns="http://www.w3.org/2000/svg" xmlns:xlink="http://www.w3.org/1999/xlink" xml:space="preserve" xmlns:serif="http://www.serif.com/" style="fill-rule:evenodd;clip-rule:evenodd;stroke-linejoin:round;stroke-miterlimit:1.41421;">
    <g transform="matrix(1.07441,0,0,1.10624,57.6246,5.28005)">
        <ellipse cx="184.637" cy="226.642" rx="228.963" ry="222.375" style="fill:rgb(33,37,43);"/>
    </g>
    <path d="M256,0C397.29,0 512,114.71 512,256C512,397.29 397.29,512 256,512C114.71,512 0,397.29 0,256C0,114.71 114.71,0 256,0ZM256,10C391.771,10 502,120.229 502,256C502,391.771 391.771,502 256,502C120.229,502 10,391.771 10,256C10,120.229 120.229,10 256,10Z" style="fill:rgb(228,127,141);"/>
    <g transform="matrix(1.20989,0,0,1.21034,33.5822,15.9673)">
        <path d="M100.45,337.613C242.603,351.496 280.555,326.848 297.861,316.203C301.038,342.701 168.003,358.803 100.45,337.613ZM105.934,296.141C70.821,304.898 52.147,313.536 123.252,321.524C124.6,321.676 125.954,321.77 127.31,321.807C183.252,323.32 234.68,322.664 266.496,312.579C267.641,312.213 268.793,311.868 269.951,311.545C277.772,309.397 280.901,305.52 278.909,299.771C284.761,303.201 286.18,307.452 274.374,314.153C223.386,332.788 161.297,333.106 95.196,326.803C93.846,326.673 92.492,326.59 91.137,326.551C42.943,325.156 40.258,302.813 105.934,296.141ZM210.932,279.23L227.619,287.768C159.008,312.848 86.918,287.331 131.655,272.072C120.265,286.486 150.582,287.481 210.932,279.23ZM124.56,236.107C108.376,252.468 145.46,255.871 220.44,244.603L232.411,252.4C224.006,254.487 215.977,256.215 208.34,257.62C121.299,273.64 85.242,247.811 124.56,236.107ZM246.468,259.886C315.363,246.082 310.35,181.097 254.274,200.332C297.869,192.852 295.298,236.355 246.468,259.886ZM231.395,218.321L245.075,211.018C158.62,223.268 47.849,223.78 137.665,198.293C10.613,218.431 130.437,239.457 231.395,218.321ZM189.485,208.114C199.711,197.496 202.877,185.464 188.896,170C171.137,147.768 175.248,127.954 195.788,109.955C215.352,96.197 232.735,88.895 248.937,85.087C209.467,107.081 184.907,128.749 200.505,149.54C222.055,175.742 217.241,192.78 189.485,208.114ZM175.861,196.575C122.679,153.723 118.698,121.427 172.56,90.813C205.158,67.697 215.305,43.257 210.333,17.927C224.501,39.022 223.238,64.816 176.717,104.395C144.725,125.057 139.464,154.205 175.861,196.575Z" style="fill:rgb(228,127,141);"/>
    </g>
</svg>
