<?xml version="1.0" encoding="UTF-8" standalone="no"?>
<svg
   xmlns:dc="http://purl.org/dc/elements/1.1/"
   xmlns:cc="http://creativecommons.org/ns#"
   xmlns:rdf="http://www.w3.org/1999/02/22-rdf-syntax-ns#"
   xmlns:svg="http://www.w3.org/2000/svg"
   xmlns="http://www.w3.org/2000/svg"
   xmlns:sodipodi="http://sodipodi.sourceforge.net/DTD/sodipodi-0.dtd"
   xmlns:inkscape="http://www.inkscape.org/namespaces/inkscape"
   version="1.1"
   id="Layer_1"
   x="0px"
   y="0px"
   width="160"
   height="160"
   viewBox="19 19 117.77778 117.77778"
   xml:space="preserve"
   sodipodi:docname="hard.svg"
   inkscape:version="1.0.1 (3bc2e813f5, 2020-09-07)"><sodipodi:namedview
     pagecolor="#ffffff"
     bordercolor="#666666"
     borderopacity="1"
     objecttolerance="10"
     gridtolerance="10"
     guidetolerance="10"
     inkscape:pageopacity="0"
     inkscape:pageshadow="2"
     inkscape:window-width="1918"
     inkscape:window-height="1059"
     id="namedview1339"
     showgrid="false"
     inkscape:zoom="3.7786019"
     inkscape:cx="88.190386"
     inkscape:cy="70.920716"
     inkscape:window-x="0"
     inkscape:window-y="19"
     inkscape:window-maximized="0"
     inkscape:current-layer="g47" /><metadata
     id="metadata8"><rdf:RDF><cc:Work
         rdf:about=""><dc:format>image/svg+xml</dc:format><dc:type
           rdf:resource="http://purl.org/dc/dcmitype/StillImage" /><dc:title></dc:title></cc:Work></rdf:RDF></metadata><defs
     id="defs6" /><g
     transform="translate(-164.19542,10.789546)"
     style="display:inline"
     id="layer2"><g
       transform="matrix(0.23023071,0,0,0.23023071,183.19542,8.1101109)"
       id="g47"
       style="clip-rule:evenodd;fill-rule:evenodd;stroke-linejoin:round;stroke-miterlimit:1.41420996"><g
         transform="matrix(1.07441,0,0,1.10624,57.6246,5.28005)"
         id="g32">
        <ellipse
   cx="184.63699"
   cy="226.642"
   rx="228.963"
   ry="222.375"
   style="fill:#21252b"
   id="ellipse30" />
    </g><path
         d="M 256,0 C 397.29,0 512,114.71 512,256 512,397.29 397.29,512 256,512 114.71,512 0,397.29 0,256 0,114.71 114.71,0 256,0 Z m 0,10 C 391.771,10 502,120.229 502,256 502,391.771 391.771,502 256,502 120.229,502 10,391.771 10,256 10,120.229 120.229,10 256,10 Z"
         style="fill:#e47f8d;fill-opacity:1"
         id="path34" /></g></g><g
     id="g1462"
     transform="matrix(1.2268519,0,0,1.2268519,41.083333,41.083333)">

		<linearGradient
   id="XMLID_3_"
   gradientUnits="userSpaceOnUse"
   x1="15.9594"
   y1="-13.0143"
   x2="44.306801"
   y2="15.3332"
   gradientTransform="matrix(1,0,0,-1,0,61)">
		<stop
   offset="9.677000e-02"
   style="stop-color:#0095D5"
   id="stop1424" />
		<stop
   offset="0.3007"
   style="stop-color:#238AD9"
   id="stop1426" />
		<stop
   offset="0.6211"
   style="stop-color:#557BDE"
   id="stop1428" />
		<stop
   offset="0.8643"
   style="stop-color:#7472E2"
   id="stop1430" />
		<stop
   offset="1"
   style="stop-color:#806EE3"
   id="stop1432" />
	</linearGradient>
	<polygon
   id="XMLID_2_"
   style="fill:#e47f8d;fill-opacity:1;stroke:none"
   points="0,60 30.1,29.9 60,60 " />

		<linearGradient
   id="SVGID_1_"
   gradientUnits="userSpaceOnUse"
   x1="4.2091999"
   y1="48.940899"
   x2="20.673401"
   y2="65.404999"
   gradientTransform="matrix(1,0,0,-1,0,61)">
		<stop
   offset="0.1183"
   style="stop-color:#0095D5"
   id="stop1436" />
		<stop
   offset="0.4178"
   style="stop-color:#3C83DC"
   id="stop1438" />
		<stop
   offset="0.6962"
   style="stop-color:#6D74E1"
   id="stop1440" />
		<stop
   offset="0.8333"
   style="stop-color:#806EE3"
   id="stop1442" />
	</linearGradient>
	<polygon
   style="fill:#e47f8d;fill-opacity:1"
   points="0,0 30.1,0 0,32.5 "
   id="polygon1445" />

		<linearGradient
   id="SVGID_2_"
   gradientUnits="userSpaceOnUse"
   x1="-10.1017"
   y1="5.8362002"
   x2="45.731499"
   y2="61.669399"
   gradientTransform="matrix(1,0,0,-1,0,61)">
		<stop
   offset="0.1075"
   style="stop-color:#C757BC"
   id="stop1447" />
		<stop
   offset="0.2138"
   style="stop-color:#D0609A"
   id="stop1449" />
		<stop
   offset="0.4254"
   style="stop-color:#E1725C"
   id="stop1451" />
		<stop
   offset="0.6048"
   style="stop-color:#EE7E2F"
   id="stop1453" />
		<stop
   offset="0.743"
   style="stop-color:#F58613"
   id="stop1455" />
		<stop
   offset="0.8232"
   style="stop-color:#F88909"
   id="stop1457" />
	</linearGradient>
	<polygon
   style="fill:#e47f8d;fill-opacity:1;stroke:none"
   points="60,0 30.1,0 0,31.7 0,60 30.1,29.9 "
   id="polygon1460" />
</g></svg>
