<?xml version="1.0" encoding="UTF-8" standalone="no"?>
<svg
   xmlns:dc="http://purl.org/dc/elements/1.1/"
   xmlns:cc="http://creativecommons.org/ns#"
   xmlns:rdf="http://www.w3.org/1999/02/22-rdf-syntax-ns#"
   xmlns:svg="http://www.w3.org/2000/svg"
   xmlns="http://www.w3.org/2000/svg"
   xmlns:sodipodi="http://sodipodi.sourceforge.net/DTD/sodipodi-0.dtd"
   xmlns:inkscape="http://www.inkscape.org/namespaces/inkscape"
   version="1.1"
   id="Layer_1"
   x="0px"
   y="0px"
   width="160"
   height="160"
   viewBox="19 19 117.77778 117.77778"
   xml:space="preserve"
   sodipodi:docname="kotlin.svg"
   inkscape:version="1.0.1 (3bc2e813f5, 2020-09-07)"><sodipodi:namedview
     pagecolor="#ffffff"
     bordercolor="#666666"
     borderopacity="1"
     objecttolerance="10"
     gridtolerance="10"
     guidetolerance="10"
     inkscape:pageopacity="0"
     inkscape:pageshadow="2"
     inkscape:window-width="1920"
     inkscape:window-height="1005"
     id="namedview1073"
     showgrid="false"
     inkscape:zoom="5.23125"
     inkscape:cx="80"
     inkscape:cy="80"
     inkscape:window-x="0"
     inkscape:window-y="0"
     inkscape:window-maximized="1"
     inkscape:current-layer="Layer_1" /><metadata
     id="metadata8"><rdf:RDF><cc:Work
         rdf:about=""><dc:format>image/svg+xml</dc:format><dc:type
           rdf:resource="http://purl.org/dc/dcmitype/StillImage" /><dc:title /></cc:Work></rdf:RDF></metadata><defs
     id="defs6" /><g
     transform="translate(-164.19542,10.789546)"
     style="display:inline"
     id="layer2"><g
       transform="matrix(0.23023071,0,0,0.23023071,183.19542,8.1101109)"
       id="g47"
       style="clip-rule:evenodd;fill-rule:evenodd;stroke-linejoin:round;stroke-miterlimit:1.41420996"><g
         transform="matrix(1.07441,0,0,1.10624,57.6246,5.28005)"
         id="g32">
        <ellipse
   style="fill:#21252b"
   id="ellipse30"
   ry="222.375"
   rx="228.963"
   cy="226.642"
   cx="184.63699" />
    </g><path
         d="M 256,0 C 397.29,0 512,114.71 512,256 512,397.29 397.29,512 256,512 114.71,512 0,397.29 0,256 0,114.71 114.71,0 256,0 Z m 0,10 C 391.771,10 502,120.229 502,256 502,391.771 391.771,502 256,502 120.229,502 10,391.771 10,256 10,120.229 120.229,10 256,10 Z"
         style="fill:#e47f8d;fill-opacity:1"
         id="path34" /></g></g><path
     style="fill:#e47f8d;fill-opacity:1;stroke:none;stroke-width:0.736111px;stroke-linecap:butt;stroke-linejoin:miter;stroke-opacity:1"
     d="M 41.083334,41.083334 H 114.69445 L 78.011573,77.766205 114.69445,114.69445 H 41.083334 Z"
     id="path1638" /></svg>
