<?xml version="1.0" encoding="UTF-8" standalone="no"?>
<!DOCTYPE svg PUBLIC "-//W3C//DTD SVG 1.1//EN" "http://www.w3.org/Graphics/SVG/1.1/DTD/svg11.dtd">
<svg width="100%" height="100%" viewBox="0 0 512 512" version="1.1" xmlns="http://www.w3.org/2000/svg" xmlns:xlink="http://www.w3.org/1999/xlink" xml:space="preserve" xmlns:serif="http://www.serif.com/" style="fill-rule:evenodd;clip-rule:evenodd;stroke-linejoin:round;stroke-miterlimit:1.41421;">
    <g transform="matrix(1.07441,0,0,1.10624,57.6246,5.28005)">
        <ellipse cx="184.637" cy="226.642" rx="228.963" ry="222.375" style="fill:rgb(33,37,43);"/>
    </g>
    <path d="M256,0C397.29,0 512,114.71 512,256C512,397.29 397.29,512 256,512C114.71,512 0,397.29 0,256C0,114.71 114.71,0 256,0ZM256,10C391.771,10 502,120.229 502,256C502,391.771 391.771,502 256,502C120.229,502 10,391.771 10,256C10,120.229 120.229,10 256,10Z" style="fill:rgb(228,127,141);"/>
    <g transform="matrix(0.544413,0,0,0.544412,-304.797,-23.1863)">
        <path d="M674.881,676.599L729.324,404.037C729.324,404.037 837.22,404.136 854.864,404.152C859.419,404.156 863.969,404.476 868.48,405.109C985.937,421.194 936.49,603.418 825.237,606.136C825.19,606.138 825.143,606.138 825.096,606.139C825.059,606.14 752.063,607.122 752.063,607.122L738.719,678.423L674.881,676.599ZM1144.88,676.599L1199.32,404.037C1199.32,404.037 1307.22,404.136 1324.86,404.152C1329.42,404.156 1333.97,404.476 1338.48,405.109C1455.94,421.194 1406.49,603.418 1295.24,606.136C1295.19,606.138 1295.14,606.138 1295.1,606.139C1295.06,606.14 1222.06,607.122 1222.06,607.122L1208.72,678.423L1144.88,676.599ZM926.747,608.865L980.906,334.731L1044.19,335.02L1031.7,406.954C1031.7,406.954 1072.04,406.519 1088.45,406.342C1095.97,406.262 1103.49,406.893 1110.89,408.228C1144.1,414.213 1158.75,430.264 1161.2,452.929C1161.76,458.169 1161.59,463.459 1160.72,468.656C1156.7,492.74 1137.02,609.951 1137.02,609.951L1068.35,610.366C1068.35,610.366 1089.3,498.31 1092.23,482.643C1092.66,480.323 1092.9,477.97 1092.93,475.611C1093.1,462.85 1087.28,456.425 1075.02,456.8C1074.52,456.815 1074.03,456.822 1073.53,456.82C1068.79,456.833 1019.49,456.657 1019.49,456.657L988.217,609.138L926.747,608.865ZM765.346,553.491L783.014,453.064L829.423,453.047C890.842,455.852 873.346,546.274 807.866,556.054L765.346,553.491ZM1235.35,553.491L1253.01,453.064L1299.42,453.047C1360.84,455.852 1343.35,546.274 1277.87,556.054L1235.35,553.491Z" style="fill:rgb(228,127,141);"/>
    </g>
</svg>
